<svg width="24" height="24" viewBox="0 0 24 24" fill="none" xmlns="http://www.w3.org/2000/svg">
<g id="Icons">
<path id="Vector" d="M21.9641 18.8544C21.8308 19.4283 21.5158 19.9439 21.0658 20.3244C20.564 20.835 19.9649 21.2399 19.3039 21.5152C18.6429 21.7905 17.9335 21.9305 17.2175 21.927H16.8602C15.374 21.8506 13.9174 21.4829 12.5729 20.845C12.2463 20.6918 11.9298 20.5489 11.5521 20.3754C9.9766 19.4848 8.53062 18.3823 7.25467 17.0987C5.59496 15.5426 4.23518 13.695 3.24299 11.6477C2.69616 10.5313 2.32761 9.3361 2.15074 8.1056C1.90605 6.82314 2.05185 5.49678 2.56927 4.29809C2.89065 3.75308 3.28566 3.25499 3.74316 2.81794C3.94615 2.59357 4.19277 2.41297 4.46793 2.28714C4.75318 2.15507 5.06222 2.08212 5.37642 2.07275C5.71266 2.1083 6.03843 2.21058 6.33466 2.37359C6.63088 2.5366 6.8916 2.75708 7.10155 3.02211C7.57111 3.54271 8.12233 4.04288 8.62251 4.57369L9.26561 5.20657C9.64623 5.53964 9.88083 6.00884 9.91891 6.51318C9.92032 6.97673 9.74931 7.42425 9.43914 7.76875C9.24334 8.01041 9.03551 8.24207 8.81646 8.46288L8.60211 8.68745C8.47646 8.80359 8.37874 8.94668 8.31629 9.10598C8.26373 9.2601 8.24628 9.42402 8.26525 9.58575C8.42936 10.0299 8.68697 10.4338 9.02063 10.7698C9.54123 11.4742 10.0414 12.0866 10.6028 12.8114C11.5714 13.9301 12.7204 14.8789 14.002 15.6185C14.1257 15.7193 14.2734 15.7862 14.4307 15.8125C14.5699 15.834 14.7123 15.8126 14.8391 15.7513C15.228 15.5419 15.5743 15.2614 15.8598 14.9244C16.2204 14.4814 16.7414 14.1988 17.3094 14.1384C17.5819 14.1395 17.8515 14.1952 18.1022 14.3021C18.3529 14.409 18.5796 14.5651 18.7691 14.7611C19.0029 14.962 19.2245 15.1768 19.4326 15.4042L19.7388 15.7308L20.0553 16.0371C20.2492 16.231 20.433 16.4046 20.6167 16.6087C20.9489 16.8949 21.2594 17.2054 21.5456 17.5376C21.8387 17.9121 21.9873 18.3795 21.9641 18.8544Z" fill="#06102D"/>
</g>
</svg>
