<svg width="24" height="24" viewBox="0 0 24 24" fill="none" xmlns="http://www.w3.org/2000/svg">
<g id="Icons">
<path id="Vector" d="M8.87891 8.53992C9.18442 7.87725 9.70154 7.33494 10.3489 6.99828C10.9963 6.66163 11.7372 6.54975 12.4552 6.68023C12.9466 6.75705 13.4134 6.94734 13.8185 7.23602C14.2235 7.52468 14.5557 7.90377 14.7887 8.34322C14.9557 8.6954 15.0463 9.0789 15.0544 9.46856C15.0626 9.85821 14.9883 10.2452 14.8363 10.6041C14.6843 10.963 14.4581 11.2856 14.1726 11.5509C13.8869 11.8161 13.5485 12.0179 13.1794 12.1431C12.8036 12.287 12.4785 12.5384 12.2448 12.8659C12.0109 13.1935 11.879 13.5827 11.8651 13.9848V14.7448" stroke="#0D0E11" stroke-width="1.5" stroke-miterlimit="10" stroke-linecap="round"/>
<path id="Vector_2" d="M11.9609 17.1616H11.9698" stroke="#0D0E11" stroke-width="2" stroke-linecap="round" stroke-linejoin="round"/>
<path id="Vector_3" d="M15.25 2.75H8.75C5.43629 2.75 2.75 5.43629 2.75 8.75V15.25C2.75 18.5637 5.43629 21.25 8.75 21.25H15.25C18.5637 21.25 21.25 18.5637 21.25 15.25V8.75C21.25 5.43629 18.5637 2.75 15.25 2.75Z" stroke="#0D0E11" stroke-width="1.5"/>
</g>
</svg>
