<svg width="24" height="24" viewBox="0 0 24 24" fill="none" xmlns="http://www.w3.org/2000/svg">
<g id="Brand Icons">
<path id="Vector" d="M13.8234 12.234C13.8073 12.5838 13.6924 12.9218 13.4919 13.209C13.2906 13.5057 13.0005 13.7309 12.6632 13.8525C12.3294 13.9886 11.9619 14.0192 11.6102 13.9402C11.2566 13.8647 10.9339 13.6847 10.6839 13.4235C10.4364 13.151 10.2737 12.8121 10.2159 12.4485C10.1506 12.0959 10.1949 11.7319 10.3427 11.4052C10.4868 11.0775 10.7241 10.7994 11.0252 10.6057C11.3327 10.4152 11.6872 10.3139 12.0489 10.3132C12.5258 10.3393 12.9751 10.5448 13.3067 10.8885C13.4784 11.0669 13.6125 11.2778 13.7013 11.5089C13.79 11.74 13.8316 11.9866 13.8234 12.234Z" fill="#F3F4F6"/>
<path id="Vector_2" d="M17.2652 8.00248C17.1514 7.72144 16.9823 7.46613 16.7679 7.25174C16.5535 7.03735 16.2982 6.86824 16.0172 6.75448C15.7342 6.64387 15.4338 6.58445 15.1299 6.57898H8.96799C8.35852 6.58155 7.77474 6.8248 7.34377 7.25576C6.9128 7.68673 6.66955 8.27051 6.66699 8.87998V15.159C6.66742 15.462 6.72796 15.762 6.84511 16.0415C6.96226 16.321 7.1337 16.5744 7.34949 16.7872C7.78029 17.2144 8.36129 17.4559 8.96799 17.46H15.1299C15.7367 17.4559 16.3176 17.2144 16.7484 16.7872C16.9642 16.5744 17.1357 16.321 17.2528 16.0415C17.37 15.762 17.4305 15.462 17.4309 15.159V8.88973C17.4288 8.58649 17.3727 8.28605 17.2652 8.00248ZM14.8277 13.443C14.6809 13.8079 14.4621 14.1396 14.1842 14.418C13.9035 14.7005 13.5729 14.9286 13.2092 15.0907C12.8415 15.2452 12.4477 15.3279 12.0489 15.3345C11.5922 15.3434 11.1392 15.2507 10.7227 15.063C10.3062 14.8753 9.93673 14.5974 9.6409 14.2493C9.34507 13.9012 9.13034 13.4917 9.01228 13.0504C8.89421 12.6091 8.87575 12.147 8.95824 11.6977C9.07838 11.1002 9.36578 10.549 9.78699 10.1085C10.2169 9.67752 10.7639 9.38221 11.3601 9.25916C11.9563 9.1361 12.5755 9.19072 13.1409 9.41623C13.7085 9.64544 14.1919 10.0437 14.5254 10.557C14.8627 11.0517 15.0459 11.6353 15.0519 12.234C15.0662 12.6485 14.9896 13.0611 14.8277 13.443ZM15.9002 8.62648C15.9107 8.70497 15.9042 8.78479 15.8813 8.8606C15.8584 8.9364 15.8196 9.00644 15.7675 9.06602C15.7153 9.12559 15.651 9.17334 15.5789 9.20605C15.5068 9.23876 15.4285 9.25568 15.3493 9.25568C15.2701 9.25568 15.1919 9.23876 15.1198 9.20605C15.0476 9.17334 14.9833 9.12559 14.9312 9.06602C14.879 9.00644 14.8402 8.9364 14.8173 8.8606C14.7944 8.78479 14.788 8.70497 14.7984 8.62648C14.788 8.54799 14.7944 8.46817 14.8173 8.39236C14.8402 8.31656 14.879 8.24652 14.9312 8.18694C14.9833 8.12737 15.0476 8.07962 15.1198 8.04691C15.1919 8.0142 15.2701 7.99728 15.3493 7.99728C15.4285 7.99728 15.5068 8.0142 15.5789 8.04691C15.651 8.07962 15.7153 8.12737 15.7675 8.18694C15.8196 8.24652 15.8584 8.31656 15.8813 8.39236C15.9042 8.46817 15.9107 8.54799 15.9002 8.62648Z" fill="#F3F4F6"/>
<path id="Vector_3" d="M16.875 2.25H7.125C5.83207 2.25 4.59209 2.76361 3.67785 3.67785C2.76361 4.59209 2.25 5.83207 2.25 7.125V16.875C2.25 18.1679 2.76361 19.4079 3.67785 20.3221C4.59209 21.2364 5.83207 21.75 7.125 21.75H16.875C18.1679 21.75 19.4079 21.2364 20.3221 20.3221C21.2364 19.4079 21.75 18.1679 21.75 16.875V7.125C21.75 5.83207 21.2364 4.59209 20.3221 3.67785C19.4079 2.76361 18.1679 2.25 16.875 2.25ZM18.942 15.0615C18.9512 15.5729 18.8549 16.0807 18.6593 16.5533C18.2637 17.5007 17.5104 18.2539 16.563 18.6495C16.0904 18.8452 15.5826 18.9414 15.0712 18.9323H9.075C8.56368 18.9406 8.05605 18.8444 7.58325 18.6495C7.1146 18.4523 6.68776 18.1678 6.3255 17.811C5.96665 17.4504 5.6818 17.0232 5.487 16.5533C5.28129 16.0828 5.17507 15.5749 5.175 15.0615V9.0165C5.16665 8.50518 5.26287 7.99755 5.45775 7.52475C5.8445 6.57362 6.59073 5.81338 7.5345 5.409C8.02498 5.21821 8.549 5.12866 9.075 5.14575H15.12C15.6268 5.14127 16.1294 5.23816 16.5982 5.43071C17.067 5.62327 17.4926 5.9076 17.85 6.267C18.2068 6.62926 18.4913 7.0561 18.6885 7.52475C18.8834 7.99755 18.9796 8.50518 18.9713 9.0165L18.942 15.0615Z" fill="#F3F4F6"/>
</g>
</svg>
