<svg width="20" height="20" viewBox="0 0 20 20" fill="none" xmlns="http://www.w3.org/2000/svg">
<g id="Icons">
<path id="Vector" d="M4.54209 14.1001C3.62407 13.2306 2.89994 12.1771 2.41709 11.0085C2.33455 10.8163 2.29199 10.6093 2.29199 10.4001C2.29199 10.191 2.33455 9.98398 2.41709 9.79181C3.05852 8.23021 4.13439 6.88536 5.51709 5.91679C6.82918 4.99988 8.40018 4.52683 10.0004 4.56679C11.1517 4.53819 12.2936 4.78084 13.3338 5.27513" stroke="#4F5569" stroke-width="1.5" stroke-linecap="round" stroke-linejoin="round"/>
<path id="Vector_2" d="M15.467 6.70898C16.3797 7.57801 17.1007 8.62824 17.5837 9.79233C17.6662 9.98449 17.7087 10.1915 17.7087 10.4007C17.7087 10.6098 17.6662 10.8168 17.5837 11.009C16.9422 12.5706 15.8663 13.9154 14.4837 14.884C13.1716 15.8009 11.6006 16.2739 10.0003 16.234C8.84908 16.2626 7.70717 16.0199 6.66699 15.5257" stroke="#4F5569" stroke-width="1.5" stroke-linecap="round" stroke-linejoin="round"/>
<path id="Vector_3" d="M7.25804 11.3741C7.14081 11.0625 7.0815 10.7321 7.08304 10.3991C7.08304 9.6256 7.39033 8.88369 7.93731 8.33669C8.48431 7.78974 9.22614 7.48245 9.99973 7.48245C10.3326 7.48091 10.6631 7.54022 10.9747 7.65745" stroke="#4F5569" stroke-width="1.5" stroke-linecap="round" stroke-linejoin="round"/>
<path id="Vector_4" d="M12.7421 9.42578C12.8593 9.73745 12.9186 10.0679 12.9171 10.4008C12.9171 11.1744 12.6098 11.9162 12.0628 12.4632C11.5158 13.0101 10.774 13.3174 10.0004 13.3174C9.66747 13.3189 9.33706 13.2597 9.02539 13.1424" stroke="#4F5569" stroke-width="1.5" stroke-linecap="round" stroke-linejoin="round"/>
<path id="Vector_5" d="M2.5 16.6673L15.8333 3.33398" stroke="#4F5569" stroke-width="1.5" stroke-linecap="round" stroke-linejoin="round"/>
</g>
</svg>
