<svg width="24" height="24" viewBox="0 0 24 24" fill="none" xmlns="http://www.w3.org/2000/svg">
<g id="Icons">
<path id="Vector" d="M6.02344 20.5037C6.3065 19.1097 6.99723 18.3664 8.09861 17.4661C9.19999 16.566 10.5788 16.0742 12.0012 16.0742C13.4237 16.0742 14.8024 16.566 15.9038 17.4661C17.0052 18.3664 17.7864 19.1097 18.0694 20.5037" stroke="#FEFEFE" stroke-width="1.5" stroke-linecap="round" stroke-linejoin="round"/>
<path id="Vector_2" d="M12.0009 13.0278C13.8287 13.0278 15.3103 11.5462 15.3103 9.71838C15.3103 7.89062 13.8287 6.40894 12.0009 6.40894C10.1731 6.40894 8.69141 7.89062 8.69141 9.71838C8.69141 11.5462 10.1731 13.0278 12.0009 13.0278Z" stroke="#FEFEFE" stroke-width="1.5" stroke-linecap="round" stroke-linejoin="round"/>
<path id="Vector_3" d="M15.25 2.75H8.75C5.43629 2.75 2.75 5.43629 2.75 8.75V15.25C2.75 18.5637 5.43629 21.25 8.75 21.25H15.25C18.5637 21.25 21.25 18.5637 21.25 15.25V8.75C21.25 5.43629 18.5637 2.75 15.25 2.75Z" stroke="#FEFEFE" stroke-width="1.5"/>
</g>
</svg>
