<svg width="24" height="24" viewBox="0 0 24 24" fill="none" xmlns="http://www.w3.org/2000/svg">
<g id="Icons">
<path id="Vector" d="M19.3486 5.17911L16.1111 8.318L12.9147 3.9355C12.8285 3.76714 12.6974 3.62586 12.536 3.5272C12.3746 3.42855 12.1892 3.37634 12 3.37634C11.8108 3.37634 11.6254 3.42855 11.464 3.5272C11.3026 3.62586 11.1715 3.76714 11.0853 3.9355L7.88889 8.318L4.65139 5.17911C4.53548 4.99157 4.36233 4.84627 4.15752 4.76467C3.95271 4.68307 3.72709 4.66949 3.51397 4.72594C3.30085 4.78239 3.11153 4.90587 2.97397 5.07815C2.8364 5.25044 2.75788 5.46239 2.75 5.68272V15.4846C2.75 16.8475 3.29142 18.1546 4.25515 19.1184C5.21887 20.0821 6.52597 20.6235 7.88889 20.6235H16.1111C17.474 20.6235 18.7811 20.0821 19.7449 19.1184C20.7086 18.1546 21.25 16.8475 21.25 15.4846V5.68272C21.2421 5.46239 21.1636 5.25044 21.026 5.07815C20.8885 4.90587 20.6991 4.78239 20.486 4.72594C20.2729 4.66949 20.0473 4.68307 19.8425 4.76467C19.6377 4.84627 19.4645 4.99157 19.3486 5.17911Z" stroke="#FEFEFE" stroke-width="1.5" stroke-linecap="round" stroke-linejoin="round"/>
<path id="Vector_2" d="M8 16.5125H16" stroke="#FEFEFE" stroke-width="1.5" stroke-linecap="round" stroke-linejoin="round"/>
</g>
</svg>
