<svg width="302" height="144" viewBox="0 0 302 144" fill="none" xmlns="http://www.w3.org/2000/svg">
<path d="M14.5684 142.662V94.0332H35.3396" stroke="#111111" stroke-width="1.12795" stroke-linecap="round" stroke-linejoin="round"/>
<path d="M215.758 94.0332H288.11V142.662" stroke="#111111" stroke-width="1.12795" stroke-linecap="round" stroke-linejoin="round"/>
<path d="M86.2744 94.0332H159.334" stroke="#111111" stroke-width="1.12795" stroke-linecap="round" stroke-linejoin="round"/>
<path d="M178.199 16.6758H117.246C116.758 16.6768 116.289 16.8718 115.943 17.2183C115.596 17.5649 115.4 18.035 115.396 18.5264V56.2476C115.398 56.7403 115.593 57.2123 115.94 57.5606C116.287 57.9088 116.756 58.1048 117.246 58.1058H119.863L119.983 58.0207C121.209 56.9659 122.559 55.724 123.864 54.4839H120.559C120.01 54.4839 119.484 54.2649 119.097 53.8749C118.709 53.485 118.491 52.9561 118.491 52.4046V21.2447C118.491 20.6932 118.709 20.1643 119.097 19.7743C119.484 19.3844 120.01 19.1653 120.559 19.1653H172.445C172.993 19.1653 173.519 19.3844 173.907 19.7743C174.295 20.1643 174.513 20.6932 174.513 21.2447V52.4046C174.513 52.9561 174.295 53.485 173.907 53.8749C173.519 54.2649 172.993 54.4839 172.445 54.4839H131.329L128.744 58.1058H141.059L137.465 71.9561H159.907L156.443 58.1058H178.199C178.689 58.1048 179.159 57.9088 179.505 57.5606C179.852 57.2123 180.047 56.7403 180.049 56.2476V18.5264C180.045 18.035 179.849 17.5649 179.503 17.2183C179.156 16.8718 178.688 16.6768 178.199 16.6758Z" fill="#6D6D6D"/>
<path d="M148.379 67.2908C149.877 67.2908 151.091 66.0162 151.091 64.444C151.091 62.8717 149.877 61.5972 148.379 61.5972C146.881 61.5972 145.666 62.8717 145.666 64.444C145.666 66.0162 146.881 67.2908 148.379 67.2908Z" stroke="#111111" stroke-width="1.12795" stroke-linecap="round" stroke-linejoin="round"/>
<path d="M154.375 58.155L157.375 71.5649" stroke="#111111" stroke-width="1.12795" stroke-linecap="round" stroke-linejoin="round"/>
<path d="M141.117 58.0737H156.305" stroke="#111111" stroke-width="1.12795" stroke-linecap="round" stroke-linejoin="round"/>
<path d="M175.001 17.2543C175.516 17.2632 176.006 17.4766 176.365 17.8477C176.724 18.2189 176.922 18.7177 176.917 19.2353V56.1059" stroke="#111111" stroke-width="1.12795" stroke-linecap="round" stroke-linejoin="round"/>
<path d="M140.727 26.8779H140.146C139.803 26.8779 139.524 27.1581 139.524 27.5036V28.876C139.524 29.2216 139.803 29.5017 140.146 29.5017H140.727C141.071 29.5017 141.349 29.2216 141.349 28.876V27.5036C141.349 27.1581 141.071 26.8779 140.727 26.8779Z" fill="#6D6D6D"/>
<path d="M137.969 26.8779H127.129C126.658 26.8779 126.276 27.2622 126.276 27.7361V28.6435C126.276 29.1175 126.658 29.5017 127.129 29.5017H137.969C138.44 29.5017 138.822 29.1175 138.822 28.6435V27.7361C138.822 27.2622 138.44 26.8779 137.969 26.8779Z" fill="#5959FF"/>
<path d="M139.104 39.0629H127.129C126.658 39.0629 126.276 39.4471 126.276 39.9211V40.8284C126.276 41.3024 126.658 41.6866 127.129 41.6866H139.104C139.576 41.6866 139.958 41.3024 139.958 40.8284V39.9211C139.958 39.4471 139.576 39.0629 139.104 39.0629Z" fill="#5959FF"/>
<path d="M150.102 35.0062H130.588C130.117 35.0062 129.735 35.3905 129.735 35.8644V36.7718C129.735 37.2458 130.117 37.63 130.588 37.63H150.102C150.573 37.63 150.955 37.2458 150.955 36.7718V35.8644C150.955 35.3905 150.573 35.0062 150.102 35.0062Z" fill="#6D6D6D"/>
<path d="M162.75 35.0062H152.995C152.524 35.0062 152.142 35.3905 152.142 35.8644V36.7718C152.142 37.2458 152.524 37.63 152.995 37.63H162.75C163.221 37.63 163.603 37.2458 163.603 36.7718V35.8644C163.603 35.3905 163.221 35.0062 162.75 35.0062Z" fill="#6D6D6D"/>
<path d="M166.862 30.9496H166.281C165.937 30.9496 165.658 31.2297 165.658 31.5753V32.9476C165.658 33.2932 165.937 33.5733 166.281 33.5733H166.862C167.205 33.5733 167.484 33.2932 167.484 32.9476V31.5753C167.484 31.2297 167.205 30.9496 166.862 30.9496Z" fill="#5959FF"/>
<path d="M147.365 30.9423H127.129C126.658 30.9423 126.276 31.3265 126.276 31.8005V32.7078C126.276 33.1818 126.658 33.566 127.129 33.566H147.365C147.836 33.566 148.218 33.1818 148.218 32.7078V31.8005C148.218 31.3265 147.836 30.9423 147.365 30.9423Z" fill="#5959FF"/>
<path d="M153.845 26.8779H143.005C142.534 26.8779 142.152 27.2622 142.152 27.7361V28.6435C142.152 29.1175 142.534 29.5017 143.005 29.5017H153.845C154.316 29.5017 154.698 29.1175 154.698 28.6435V27.7361C154.698 27.2622 154.316 26.8779 153.845 26.8779Z" fill="#5959FF"/>
<path d="M163.818 30.9346H150.059C149.585 30.9346 149.2 31.3213 149.2 31.7984V32.7096C149.2 33.1867 149.585 33.5734 150.059 33.5734H163.818C164.293 33.5734 164.678 33.1867 164.678 32.7096V31.7984C164.678 31.3213 164.293 30.9346 163.818 30.9346Z" fill="#6D6D6D"/>
<path d="M117.529 71.7916L117.341 70.8881H117.318C112.276 70.8484 115.75 63.1945 118.446 59.6331C117.538 55.7788 116.404 51.1267 115.532 48.0398C113.987 42.5787 110.381 41.2347 107.687 42.0116L103.858 42.6638L103.583 43.2762L105.488 42.8566C105.694 43.2347 108.163 48.5861 102.185 49.9604C98.2612 50.8602 93.725 47.658 91.6702 44.7412L91.9165 44.6959L88.5082 45.2762C88.3672 45.2611 88.2262 45.2497 88.089 45.2459C84.7314 45.1703 79.1706 57.3969 77.8716 64.5177C79.618 63.9506 83.5471 63.357 88.542 64.0357C88.6887 63.7408 89.2244 62.8429 89.9294 61.5783C90.0121 61.7219 90.093 61.8618 90.1738 61.9979C90.5855 62.6879 91.9729 65.0035 91.9729 65.0035L112.652 67.2586L111.701 68.9977L108.847 71.6442L117.529 71.7916Z" fill="#111111"/>
<path d="M96.3305 36.2952C95.5992 36.6241 93.0313 37.5315 92.1346 34.6336C91.6871 33.1838 92.268 32.2934 93.0745 31.749" stroke="#111111" stroke-width="1.12795" stroke-linecap="round" stroke-linejoin="round"/>
<path d="M104.684 40.813L103.579 43.2705L105.483 42.8508C105.69 43.2289 108.159 48.5803 102.18 49.9546C98.257 50.8544 93.7208 47.6522 91.666 44.7354L94.9822 44.1305L97.4806 38.0815" stroke="#111111" stroke-width="1.12795" stroke-linecap="round" stroke-linejoin="round"/>
<path d="M109.069 29.4184C109.524 30.976 110.827 38.369 106.112 40.1932C101.397 42.0173 96.9737 38.3464 95.2968 33.7945C93.6199 29.2426 94.6708 24.7909 97.6298 23.5603C100.589 22.3297 105.757 18.1484 109.069 29.4184Z" stroke="#111111" stroke-width="1.12795" stroke-linecap="round" stroke-linejoin="round"/>
<path d="M104.243 35.4201C104.954 35.551 105.688 35.4462 106.335 35.1215C106.378 35.1004 106.424 35.0897 106.472 35.0902C106.519 35.0908 106.565 35.1027 106.607 35.1248C106.649 35.1469 106.685 35.1787 106.712 35.2176C106.74 35.2564 106.757 35.3012 106.764 35.3483C106.864 35.9324 106.835 36.9494 105.564 37.2575C104.237 37.5789 103.955 36.4069 103.899 35.7453C103.895 35.6998 103.902 35.6542 103.918 35.6117C103.935 35.5692 103.96 35.5309 103.993 35.4997C104.026 35.4685 104.066 35.4452 104.109 35.4314C104.152 35.4176 104.198 35.4138 104.243 35.4201Z" fill="#111111"/>
<path d="M105.06 33.3162L106.521 32.9325L104.5 27.3013" stroke="#111111" stroke-width="1.12795" stroke-linecap="round" stroke-linejoin="round"/>
<path d="M100.197 29.1122C100.197 29.1122 100.928 27.7133 102.058 28.2294" stroke="#111111" stroke-width="1.12795" stroke-linecap="round" stroke-linejoin="round"/>
<path d="M104.713 25.8003C104.713 25.8003 105.625 24.5186 106.674 25.1916" stroke="#111111" stroke-width="1.12795" stroke-linecap="round" stroke-linejoin="round"/>
<path d="M103.372 31.6593C103.642 31.6033 103.79 31.2081 103.702 30.7766C103.613 30.3451 103.322 30.0407 103.052 30.0966C102.781 30.1526 102.634 30.5478 102.722 30.9793C102.81 31.4109 103.101 31.7153 103.372 31.6593Z" fill="#111111"/>
<path d="M108.178 30.6953C108.448 30.6393 108.596 30.2441 108.508 29.8126C108.419 29.3811 108.128 29.0767 107.858 29.1326C107.587 29.1886 107.44 29.5838 107.528 30.0153C107.616 30.4469 107.907 30.7513 108.178 30.6953Z" fill="#111111"/>
<path d="M102.087 35.0361C103.815 34.7411 104.895 32.5962 104.499 30.2453C104.102 27.8945 102.379 26.2278 100.65 26.5228C98.9211 26.8178 97.8411 28.9626 98.2378 31.3135C98.6345 33.6644 100.358 35.331 102.087 35.0361Z" stroke="#5959FF" stroke-width="0.845965" stroke-linecap="round" stroke-linejoin="round"/>
<path d="M110.319 33.4451C112.048 33.1501 113.128 31.0053 112.732 28.6544C112.335 26.3035 110.612 24.6369 108.883 24.9318C107.154 25.2268 106.074 27.3717 106.471 29.7226C106.867 32.0735 108.591 33.7401 110.319 33.4451Z" stroke="#5959FF" stroke-width="0.845965" stroke-linecap="round" stroke-linejoin="round"/>
<path d="M106.296 28.6603L104.346 29.0327" stroke="#5959FF" stroke-width="0.845965" stroke-linecap="round" stroke-linejoin="round"/>
<path d="M98.1124 29.8209L93.7002 31.3162" stroke="#5959FF" stroke-width="0.845965" stroke-linecap="round" stroke-linejoin="round"/>
<path d="M92.9187 31.8606L92.9506 31.836C93.2439 31.9267 93.6312 31.8814 94.135 31.647C96.6052 30.5128 97.5057 27.6906 97.8328 25.9137L109.564 22.8514C109.759 22.8 109.94 22.7057 110.095 22.5753C110.25 22.4448 110.374 22.2814 110.458 22.0969C110.542 21.9124 110.584 21.7114 110.582 21.5084C110.579 21.3055 110.532 21.1056 110.443 20.9232C106.845 13.5113 100.677 17.7286 96.5469 21.9478C93.3341 21.893 89.2528 25.1613 88.3824 27.7907C87.3353 30.9495 87.7 35.49 89.8864 38.3992C92.2081 40.9662 94.3437 41.8131 96.2255 41.6789C96.1653 41.6297 97.47 38.35 97.7482 37.8453C97.2811 37.3384 96.859 36.7912 96.4868 36.2102C96.1108 36.3992 93.1161 37.8094 92.131 34.6242C91.7137 33.2745 92.1893 32.4088 92.9149 31.8568" fill="#111111"/>
<path d="M104.302 66.3514C99.2915 66.1037 87.7676 64.4913 87.7676 64.4913L87.9556 63.9734C83.7746 63.48 80.4002 63.8675 78.5203 64.3514C77.9394 66.0073 77.7081 67.4289 78.0277 68.374C78.4469 69.6235 79.87 70.6783 81.1672 70.8673C91.9598 72.442 104.802 71.2624 104.802 71.2624" stroke="#111111" stroke-width="1.12795" stroke-linecap="round" stroke-linejoin="round"/>
<path d="M103.208 66.3516C104.898 66.2943 106.591 66.3898 108.265 66.637C109.817 66.8771 112.459 67.2797 112.724 67.637C113.348 68.4782 110.97 68.8997 109.846 68.2041" stroke="#111111" stroke-width="1.12795" stroke-linecap="round" stroke-linejoin="round"/>
<path d="M109.857 69.4628C111.406 69.8106 112.15 69.752 111.756 69.0337C111.483 68.5422 107.808 66.8504 107.09 66.6614C106.371 66.4724 102.442 66.2172 102.442 66.2172" stroke="#111111" stroke-width="1.12795" stroke-linecap="round" stroke-linejoin="round"/>
<path d="M106.137 67.8901C107.036 68.1669 107.92 68.4932 108.784 68.8674C109.936 69.3892 110.628 69.9676 110.547 70.1906C110.466 70.4137 109.607 70.8693 108.855 70.6008C107.798 70.0148 105.426 69.4137 105.426 69.4137C105.674 69.357 107.327 70.0432 108.233 70.3343C109.139 70.6254 109.866 71.4969 107.669 71.3721L104.353 71.2662" stroke="#111111" stroke-width="1.12795" stroke-linecap="round" stroke-linejoin="round"/>
<path d="M134.007 51.8339C134.007 51.8339 137.519 51.73 139.818 50.3784C141.189 49.5731 142.965 48.4673 143.052 47.9909C143.213 47.0949 141.046 48.0098 140.702 48.127" stroke="#111111" stroke-width="1.12795" stroke-linecap="round" stroke-linejoin="round"/>
<path d="M136.494 49.3386C136.494 49.3386 138.374 48.3519 139.205 47.3557C140.036 46.3595 140.602 45.5788 140.448 45.3803C140.294 45.1818 139.224 45.2121 138.656 45.7829C137.94 46.8113 135.744 47.9076 135.744 47.9076C135.987 47.8717 137.41 46.8888 138.107 46.2347C138.805 45.5807 139.117 44.3728 137.203 45.3463C137.203 45.3463 135.165 46.4483 134.41 46.7432C134.41 46.7432 131.214 47.1477 130.176 48.229C129.48 48.9587 124.053 54.5219 119.983 58.0265C117.629 59.5577 111.185 70.8466 117.31 70.8958C118.577 70.943 120.209 70.1056 120.857 69.1737L133.064 52.0531C135.017 51.7374 136.41 51.2346 137.346 50.7299C138.559 50.0664 142.253 46.989 142.322 46.5844C142.51 45.5051 140.681 45.5372 139.331 47.2593" stroke="#111111" stroke-width="1.12795" stroke-linecap="round" stroke-linejoin="round"/>
<path d="M95.2247 43.4133C96.6861 40.7937 96.0326 37.6333 93.7652 36.3544C91.4978 35.0755 88.475 36.1623 87.0137 38.7819C85.5523 41.4014 86.2058 44.5618 88.4732 45.8407C90.7406 47.1196 93.7634 46.0328 95.2247 43.4133Z" fill="#111111"/>
<path d="M100.134 46.5966C100.502 44.457 99.3002 42.461 97.4486 42.1384C95.597 41.8158 93.797 43.2887 93.4283 45.4284C93.0596 47.568 94.2618 49.564 96.1134 49.8866C97.9651 50.2092 99.765 48.7362 100.134 46.5966Z" fill="#111111"/>
<path d="M102.713 53.0208C103.809 51.4262 103.579 49.3557 102.199 48.3962C100.819 47.4368 98.8113 47.9517 97.7148 49.5463C96.6184 51.141 96.8483 53.2115 98.2283 54.171C99.6084 55.1304 101.616 54.6155 102.713 53.0208Z" fill="#111111"/>
<path d="M104.784 57.8506C106.005 56.8208 106.272 55.1196 105.381 54.051C104.489 52.9824 102.777 52.951 101.556 53.9808C100.335 55.0107 100.067 56.7119 100.959 57.7805C101.85 58.8491 103.563 58.8805 104.784 57.8506Z" fill="#111111"/>
<path d="M103.723 62.2909C104.975 62.9563 105.178 63.8504 105.081 64.5593C105.071 64.6327 105.083 64.7075 105.116 64.7737C105.149 64.84 105.202 64.8945 105.266 64.93C105.331 64.9655 105.405 64.9803 105.478 64.9725C105.552 64.9647 105.621 64.9347 105.677 64.8863C107.109 63.5877 109.303 61.0641 107.498 59.0377C106.647 58.0812 105.113 57.9659 103.957 58.877C102.8 59.7881 102.595 61.6898 103.723 62.2909Z" fill="#111111"/>
<path d="M93.5547 45.5769L95.5906 42.4882" stroke="#5959FF" stroke-width="1.50394" stroke-linecap="round" stroke-linejoin="round"/>
<path d="M97.6553 49.8734L100.195 48.0474" stroke="#5959FF" stroke-width="1.50394" stroke-linecap="round" stroke-linejoin="round"/>
<path d="M101.556 53.951L102.425 53.5162" stroke="#5959FF" stroke-width="1.50394" stroke-linecap="round" stroke-linejoin="round"/>
<path d="M104.154 58.639L105.023 58.2042" stroke="#5959FF" stroke-width="1.50394" stroke-linecap="round" stroke-linejoin="round"/>
<path d="M99.8868 121.794L95.9766 134.575C95.9766 134.575 102.855 136.276 102.133 142.149L85.1934 142.062L90.0398 120.246L99.8868 121.794Z" stroke="#111111" stroke-width="1.12795" stroke-linecap="round" stroke-linejoin="round"/>
<path d="M123.384 121.312L119.342 134.51C119.342 134.51 126.462 136.31 125.712 142.404L108.147 142.314L113.169 119.707L123.384 121.312Z" stroke="#111111" stroke-width="1.12795" stroke-linecap="round" stroke-linejoin="round"/>
<path d="M117.528 72.4948L75.4986 79.3945C75.4253 79.6535 79.2077 81.8519 82.7946 87.1013C86.3815 92.3507 85.12 93.8251 84.8005 94.3828C87.5395 94.7495 90.8162 94.8516 94.217 94.793L87.1917 130.244H105.19L110.208 108.341L107.215 130.372H125.213L126.74 79.8274C126.74 79.8274 126.74 71.8332 117.528 72.4948Z" fill="#5959FF"/>
<path d="M44.5596 127.775L43.52 133.571L43.6027 142.733H47.9115L48.1597 133.675C48.1597 133.675 49.9061 142.535 55.9256 142.938C61.9451 143.34 67.1469 141.677 67.1055 141.44C67.0867 141.321 67.2935 139.539 67.4815 137.811C67.6582 136.299 66.2257 134.832 64.6842 134.921C62.37 135.057 59.3339 134.872 57.4916 133.329C56.5742 132.56 56.2809 130.584 56.3336 128.138" fill="#111111"/>
<path d="M69.4697 128.666L69.5957 142.734H73.9026L74.1583 133.675C74.1583 133.675 75.9066 142.535 81.9261 142.938C87.9456 143.34 93.1455 141.677 93.106 141.441C93.0853 141.322 93.294 139.539 93.482 137.811C93.6587 136.299 92.2243 134.832 90.6828 134.921C88.3686 135.057 85.3344 134.872 83.4921 133.329C82.601 132.583 81.9881 130.571 81.5539 128.036" fill="#111111"/>
<path d="M71.6688 53.9699C71.2834 53.2932 70.8905 52.5918 70.507 51.8905C70.2739 49.0362 69.693 46.5145 68.5538 44.8586C67.4089 43.4786 66.0178 42.9305 64.3672 42.3842" stroke="#111111" stroke-width="1.12795" stroke-linecap="round" stroke-linejoin="round"/>
<path d="M49.6799 41.1461L44.01 40.717L43.9273 40.6716C41.5078 40.6716 38.3402 42.751 37.9792 45.5524C37.3062 50.7791 38.9436 57.7336 39.6411 63.7618C39.5189 64.3818 39.4211 64.8733 39.3516 65.1984C39.3516 65.1984 25.6469 84.3643 35.2345 94.0125C35.2853 94.0881 50.2965 93.9123 50.2965 93.9123L44.2807 127.851L81.569 128.543C81.569 128.543 85.6352 94.6514 84.7911 90.8935C83.0804 83.268 65.0633 72.5329 65.0633 72.5329L66.4224 72.393C70.3703 74.0035 74.8821 72.9109 78.9427 70.4441C78.4295 70.015 77.5027 68.8902 77.5027 68.2797C77.4662 65.9027 77.8684 63.5395 78.6889 61.3101" stroke="#111111" stroke-width="1.12795" stroke-linecap="round" stroke-linejoin="round"/>
<path d="M53.018 40.0346C51.8167 40.1839 50.6136 38.7586 50.3166 36.821C50.1498 35.8903 50.2631 34.9306 50.6418 34.0649" stroke="#5959FF" stroke-width="1.12795" stroke-linecap="round" stroke-linejoin="round"/>
<path d="M69.6195 39.4468C68.4389 39.5923 67.2546 38.2162 66.9331 36.3278" stroke="#5959FF" stroke-width="1.12795" stroke-linecap="round" stroke-linejoin="round"/>
<path d="M51.7305 20.2277C54.0391 18.0331 54.5222 7.95203 46.8333 2.17524C39.0505 -3.66772 34.0818 3.89353 33.0122 5.86135C31.9425 7.82916 31.574 12.9047 38.1688 16.8535C44.7636 20.8024 49.0986 22.74 51.7305 20.2277Z" fill="#111111"/>
<path d="M52.8207 24.0463L50.6494 21.6664C50.4649 21.4721 50.3222 21.2417 50.23 20.9895C50.1379 20.7374 50.0982 20.4689 50.1136 20.2007C50.1289 19.9325 50.1989 19.6703 50.3192 19.4305C50.4395 19.1906 50.6076 18.9782 50.8129 18.8064L50.9577 18.6835C51.3899 18.3342 51.9382 18.1633 52.4911 18.2054C53.0441 18.2475 53.5605 18.4995 53.9355 18.9104L56.1049 21.2903L52.8207 24.0463Z" fill="#5959FF"/>
<path d="M53.1837 33.7908C52.8515 33.9646 52.4835 34.0578 52.1091 34.0631C51.7347 34.0683 51.3643 33.9854 51.0274 33.821C49.8506 33.2539 49.3355 31.8854 49.8619 30.7568C50.106 30.2688 50.515 29.8842 51.0155 29.6719C51.5161 29.4595 52.0754 29.4334 52.5934 29.5981" stroke="#111111" stroke-width="1.12795" stroke-linecap="round" stroke-linejoin="round"/>
<path d="M67.5703 28.8005C68.1146 28.6709 68.6866 28.733 69.1908 28.9763C70.3676 29.5434 70.8827 30.912 70.3564 32.0386C70.1325 32.4908 69.7658 32.8556 69.3137 33.0759C68.8616 33.2962 68.3496 33.3595 67.8579 33.256" stroke="#111111" stroke-width="1.12795" stroke-linecap="round" stroke-linejoin="round"/>
<path d="M61.6753 40.6639L61.7223 41.8718L64.5422 42.4937C64.7001 42.9531 64.8731 50.9151 57.6372 49.9246C52.8904 49.2743 50.6702 45.0097 49.3994 41.0949L53.4262 41.3785L53.4412 33.8853" stroke="#111111" stroke-width="1.12795" stroke-linecap="round" stroke-linejoin="round"/>
<path d="M61.9402 40.4003C65.9952 39.6512 68.5062 34.7954 67.5487 29.5546C66.5912 24.3138 62.5277 20.6725 58.4727 21.4216C54.4176 22.1707 51.9066 27.0265 52.8641 32.2673C53.8216 37.5081 57.8851 41.1494 61.9402 40.4003Z" stroke="#111111" stroke-width="1.12795" stroke-linecap="round" stroke-linejoin="round"/>
<path d="M60.8818 33.2029L62.3031 33.1557C62.3375 33.1545 62.3713 33.1456 62.4018 33.1296C62.4323 33.1135 62.4589 33.0908 62.4795 33.063C62.5001 33.0352 62.5142 33.0031 62.5207 32.9691C62.5273 32.935 62.5261 32.9 62.5174 32.8665L61.4928 28.9686" stroke="#111111" stroke-width="1.12795" stroke-linecap="round" stroke-linejoin="round"/>
<path d="M56.9341 27.0707C56.9341 27.0707 58.1936 25.9366 59.2445 26.8817" stroke="#111111" stroke-width="1.12795" stroke-linecap="round" stroke-linejoin="round"/>
<path d="M62.6812 26.7115C62.6812 26.7115 64.2904 26.1047 64.9371 27.3429" stroke="#111111" stroke-width="1.12795" stroke-linecap="round" stroke-linejoin="round"/>
<path d="M59.6306 30.2761C59.6458 29.8045 59.4033 29.4138 59.0888 29.4035C58.7744 29.3933 58.5072 29.7673 58.4919 30.2389C58.4767 30.7106 58.7192 31.1012 59.0337 31.1115C59.3481 31.1218 59.6153 30.7477 59.6306 30.2761Z" fill="#111111"/>
<path d="M64.4322 31.3199C64.7449 31.2971 64.9708 30.8954 64.9368 30.4227C64.9028 29.95 64.6217 29.5852 64.3089 29.608C63.9962 29.6307 63.7703 30.0324 63.8043 30.5051C63.8383 30.9779 64.1194 31.3426 64.4322 31.3199Z" fill="#111111"/>
<path d="M57.5093 19.1826L57.4923 19.2053C55.0635 19.5607 52.3508 20.6816 50.8412 22.313C48.1661 25.2051 49.3955 31.4186 52.1214 31.8401C52.3468 31.8754 52.574 31.8982 52.8019 31.9082C52.7775 31.7513 52.7568 31.5944 52.738 31.4356C52.6746 30.8709 52.6502 30.3024 52.6647 29.7343C56.3794 28.3393 56.3719 22.7402 56.3663 22.2733C57.154 22.9046 58.186 23.9859 57.9191 25.1692L66.1362 25.6909C66.9653 27.1332 67.4876 28.7327 67.6702 30.3884C67.6702 30.4111 67.6702 30.4319 67.6702 30.4545C68.4391 29.3487 68.4767 27.6191 67.8319 25.7987L70.6048 25.9745C70.6048 25.9745 73.1615 16.5399 57.5093 19.1826Z" fill="#111111"/>
<path d="M68.7856 32.1575C69.9982 31.9684 71.0152 33.5922 71.316 35.5506C71.6168 37.5089 70.8761 39.2518 69.6617 39.4408H69.6203" stroke="#5959FF" stroke-width="1.12795" stroke-linecap="round" stroke-linejoin="round"/>
<path d="M51.9697 32.9327C53.1842 32.7437 54.4136 34.1785 54.7144 36.1463C55.0152 38.1141 54.2745 39.8475 53.0601 40.0346H53.0187" stroke="#5959FF" stroke-width="1.12795" stroke-linecap="round" stroke-linejoin="round"/>
<path d="M61.1563 36.0234C61.1563 36.0234 57.9115 38.0479 57.7461 33.6492L61.1563 36.0234Z" stroke="#111111" stroke-width="1.12795" stroke-linecap="round" stroke-linejoin="round"/>
<path d="M51.4921 60.9828C51.4921 60.9828 48.9391 59.8089 47.627 62.2285" stroke="#111111" stroke-width="1.12795" stroke-linecap="round" stroke-linejoin="round"/>
<path d="M51.2722 59.9564C51.2722 59.9564 49.0483 57.3894 46.3506 60.7636" stroke="#111111" stroke-width="1.12795" stroke-linecap="round" stroke-linejoin="round"/>
<path d="M67.0806 56.8999L70.0339 55.7657C70.0339 55.7657 72.3462 53.2005 73.367 52.4312C74.3878 51.6618 76.3956 51.7563 75.0439 52.9454C73.6923 54.1344 73.4986 54.8508 73.4986 54.8508C73.4986 54.8508 77.0554 53.8092 79.0105 52.5824C81.0089 51.3291 80.5746 53.4803 80.5746 53.4803C80.5746 53.4803 82.0786 53.6882 81.5014 54.4671C81.5014 54.4671 82.6576 55.1324 81.5014 55.7997C81.5014 55.7997 83.1407 55.9736 82.2027 56.9585C81.5202 58.3611 76.7866 61.0189 73.8821 60.8034L72.2579 61.5217L70.2106 62.5368" stroke="#111111" stroke-width="1.12795" stroke-linecap="round" stroke-linejoin="round"/>
<path d="M75.7578 55.5767C75.7578 55.5767 79.3654 54.6844 80.5742 53.4973L75.7578 55.5767Z" fill="white"/>
<path d="M75.7578 55.5767C75.7578 55.5767 79.3654 54.6844 80.5742 53.4973" stroke="#111111" stroke-width="1.12795" stroke-linecap="round" stroke-linejoin="round"/>
<path d="M76.2295 56.8243C76.6205 56.6504 79.5006 56.1173 81.326 54.3461L76.2295 56.8243Z" fill="white"/>
<path d="M76.2295 56.8243C76.6205 56.6504 79.5006 56.1173 81.326 54.3461" stroke="#111111" stroke-width="1.12795" stroke-linecap="round" stroke-linejoin="round"/>
<path d="M76.6943 58.1154C77.5121 57.7657 79.3074 57.8678 81.5145 55.9056L76.6943 58.1154Z" fill="white"/>
<path d="M76.6943 58.1154C77.5121 57.7657 79.3074 57.8678 81.5145 55.9056" stroke="#111111" stroke-width="1.12795" stroke-linecap="round" stroke-linejoin="round"/>
<path d="M49.9452 50.0947C51.3006 55.3989 51.6014 61.1304 51.6014 61.1304L66.9302 56.9282L70.1543 62.5311C70.1543 62.5311 66.4527 64.3269 58.7244 68.2663C51.8815 71.7539 43.2451 74.6669 40.0098 65.5669" stroke="#111111" stroke-width="1.12795" stroke-linecap="round" stroke-linejoin="round"/>
<path d="M191.906 130.195V142.368H168.899C168.899 142.368 168.828 135.805 179.427 134.595V130.032L191.906 130.195Z" fill="#111111"/>
<path d="M172.89 130.223V142.368H149.886C149.886 142.368 149.812 135.805 160.413 134.595V129.977L172.89 130.223Z" fill="#111111"/>
<path d="M179.803 78.1206L162.259 89.6723C160.164 92.0586 158.966 95.108 158.875 98.2902L157.738 130.197H172.213L192.141 130.25C192.141 130.25 193.419 106.594 193.889 98.1673C193.941 97.238 194.333 96.3609 194.99 95.7053C195.648 95.0497 196.523 94.6621 197.448 94.6173C200.862 94.4491 205.949 94.209 208.182 94.1391C225.708 93.5247 221.022 86.2527 218.95 81.077C218.149 79.0789 217.375 77.1754 216.764 75.735" stroke="#111111" stroke-width="1.12795" stroke-linecap="round" stroke-linejoin="round"/>
<path d="M197.775 76.8201L177.647 85.1979C175.126 86.7423 175.1 91.3263 174.983 94.5701L173.855 130.197" stroke="#111111" stroke-width="1.12795" stroke-linecap="round" stroke-linejoin="round"/>
<path d="M220.878 66.2474C219.283 64.1983 216.621 60.7749 214.71 58.308C214.634 58.3057 214.559 58.2884 214.49 58.257C214.388 58.2097 212.078 57.2135 208.797 59.3194C208.742 59.4509 208.64 59.5568 208.511 59.6161C203.248 62.0376 195.506 65.5952 193.895 66.357C195.497 67.8806 197.488 69.9921 197.89 71.4136C192.882 71.7368 191.831 71.5913 191.62 71.5327L188.613 71.8748C186.357 72.1886 187.037 71.2264 187.941 70.8522C188.366 70.6782 188.951 70.4004 189.481 70.1565H189.47C188.725 70.4347 188.006 70.7801 187.323 71.1886C186.571 71.5289 185.654 71.1206 185.552 70.907C185.49 70.7747 185.719 70.4741 186.171 70.1149C184.625 70.5932 183.864 70.5913 184.21 69.8238C184.374 69.6038 184.579 69.4177 184.813 69.2756C183.757 69.408 182.7 69.0998 183.095 68.4666C183.337 68.0753 186.028 67.4382 187.607 67.0583C188.956 66.7451 190.325 66.529 191.705 66.4118L192.81 66.2001C192.764 66.0737 192.764 65.9349 192.81 65.8085C192.856 65.6821 192.946 65.5763 193.062 65.5101C193.438 65.2984 204.41 60.2607 207.419 58.8789C206.479 57.1776 203.387 51.2931 203.793 47.8168C203.81 47.6664 203.887 47.5291 204.005 47.4352C204.123 47.3412 204.273 47.2983 204.423 47.3159C204.572 47.3334 204.709 47.41 204.802 47.5287C204.896 47.6475 204.938 47.7987 204.921 47.9491C204.564 51.0114 207.438 56.5463 208.376 58.257C210.589 56.8922 212.448 56.7637 213.623 56.8998C213.087 56.2041 212.694 55.6881 212.523 55.4574C211.519 54.0983 212.873 53.3138 212.247 52.208C211.621 51.1022 211.563 50.5785 211.563 50.5785L211.632 50.5521C210.435 50.0133 208.011 47.5578 207.722 46.8943C207.4 46.2149 207.292 45.4529 207.411 44.71C207.531 43.967 207.873 43.2783 208.391 42.7356C204.953 40.817 205.099 39.4824 206.214 39.7678C207.329 40.0533 211.611 42.7923 211.754 42.8925C213.36 43.97 214.531 44.7242 215.341 46.142C215.341 46.1136 215.354 46.0985 215.354 46.0985C215.354 46.0985 215.742 46.2649 216.881 46.8546C217.093 46.9646 217.333 47.0043 217.569 46.968C212.724 34.2878 206.998 36.8851 203.695 36.9985L202.635 37.0401L203.199 38.4692L192.91 47.8111L193.149 38.7376L192.466 35.5695C192.19 35.647 191.929 35.715 191.714 35.7717V35.785C192.209 36.0156 192.592 36.3067 192.673 36.6677C192.933 37.8416 191.947 37.9078 191.947 37.9078L191.318 37.3123L191.295 37.4031C191.69 37.6583 191.987 37.9588 192.047 38.3066C192.22 39.4975 191.231 39.49 191.231 39.49L190.846 39.0363L190.818 39.1478C191.194 39.4767 191.335 39.8813 190.838 40.3406C189.43 41.6487 188.72 41.5032 188.72 41.5032C188.72 41.5032 187.812 40.9209 189.118 40.0022C189.054 40.0287 188.994 40.0571 188.94 40.0854C187.755 40.7357 186.586 41.8113 185.732 41.7168C185.732 41.7168 185.693 42.1099 185.584 42.8075C185.684 42.7966 185.785 42.8116 185.877 42.8509L187.656 43.6449C187.785 43.7028 187.888 43.8078 187.945 43.9388C188.001 44.0699 188.006 44.2173 187.958 44.3519L182.198 60.8127C182.159 60.9233 182.087 61.0191 181.992 61.0868C181.897 61.1545 181.783 61.1908 181.666 61.1908C181.602 61.1912 181.539 61.1803 181.478 61.1586C181.338 61.1085 181.222 61.0044 181.158 60.8691C181.093 60.7337 181.085 60.5782 181.134 60.4365L186.71 44.4691L185.407 43.8868C185.286 43.8326 185.188 43.7374 185.13 43.6178C185.072 43.4983 185.058 43.362 185.09 43.2328L180.627 41.3425C180.644 41.3047 180.657 41.2669 180.672 41.2291L178.626 40.3085C178.626 40.3085 172.676 53.9887 171.295 57.5481C171.141 57.9919 171.012 58.4437 170.907 58.9016C167.99 67.6745 174.133 72.2264 174.133 72.2264L204.084 72.5326L200.61 75.5004C200.101 76.0864 216.945 74.767 217.529 74.8407C217.828 74.8766 216.313 72.5553 214.764 70.2775C217.219 69.2605 219.643 67.9127 220.878 66.2474Z" fill="#111111"/>
<path d="M192.923 37.7397L193.136 38.7284L192.897 47.7962L203.186 38.4543L201.189 33.3278" stroke="#111111" stroke-width="1.12795" stroke-linecap="round" stroke-linejoin="round"/>
<path d="M188.293 28.7133C188.233 26.3259 188.372 23.2485 189.013 20.4205C189.05 20.2551 189.096 20.0917 189.15 19.931C187.479 19.2202 186.471 21.8931 187.114 26.3221C187.426 28.4752 186.204 30.2634 186.204 30.2634C187.144 30.5054 187.851 30.3428 188.37 29.9912C188.298 29.2256 188.293 28.719 188.293 28.7133Z" fill="#111111"/>
<path d="M192.953 37.5561C194.664 37.9342 196.583 37.5561 197.841 36.8303C199.922 35.6129 200.305 34.9759 200.896 33.5203C201.486 32.0648 202.458 26.4619 202.458 26.4619V26.4449C202.458 26.4449 203.744 18.5415 195.792 17.12C195.051 16.9876 189.964 16.1748 189.013 20.4205C188.372 23.2559 188.233 26.3258 188.293 28.7133C188.293 28.7246 188.319 31.3881 189.127 33.7604" stroke="#111111" stroke-width="1.12795" stroke-linecap="round" stroke-linejoin="round"/>
<path d="M191.577 26.9838L190.765 30.8608L192.171 30.6377" stroke="#111111" stroke-width="1.12795" stroke-linecap="round" stroke-linejoin="round"/>
<path d="M190.197 26.7159C190.229 26.3729 190.077 26.0781 189.856 26.0574C189.636 26.0367 189.432 26.298 189.4 26.641C189.368 26.984 189.521 27.2789 189.741 27.2996C189.961 27.3203 190.166 27.059 190.197 26.7159Z" fill="#111111"/>
<path d="M193.652 27.7243C193.872 27.7032 194.025 27.4081 193.992 27.0652C193.96 26.7222 193.755 26.4613 193.535 26.4823C193.314 26.5034 193.162 26.7985 193.195 27.1415C193.227 27.4845 193.432 27.7454 193.652 27.7243Z" fill="#111111"/>
<path d="M195.863 24.3241C195.671 24.0555 195.411 23.8437 195.11 23.7107C194.808 23.5777 194.477 23.5284 194.151 23.568" stroke="#111111" stroke-width="1.12795" stroke-linecap="round" stroke-linejoin="round"/>
<path d="M190.658 23.2522C190.658 23.2522 189.284 22.617 188.671 23.4412" stroke="#111111" stroke-width="1.12795" stroke-linecap="round" stroke-linejoin="round"/>
<path d="M196.256 20.5018C196.256 20.5018 193.171 31.0876 200.178 32.2218C200.178 32.2218 204.259 32.9779 205.201 31.5318C205.201 31.5318 202.253 29.9307 202.639 28.2351C202.639 28.2351 205.94 31.9269 208.855 29.3145C208.855 29.3145 204.026 28.4695 204.487 24.0972C204.817 20.965 197.352 17.9594 196.256 20.5018Z" fill="#111111"/>
<path d="M209.064 22.0879L204.799 21.4074C204.378 18.5114 202.731 14.3584 196.841 13.6269C187.629 12.4927 187.295 21.4981 187.295 21.4981L208.628 24.8534C208.987 24.8992 209.35 24.8027 209.639 24.5842C209.929 24.3658 210.122 24.0427 210.179 23.6832C210.236 23.3238 210.151 22.9563 209.943 22.6585C209.735 22.3607 209.42 22.1561 209.064 22.0879Z" fill="#5959FF"/>
<path d="M194.995 31.5885C194.995 31.5885 194.403 32.9552 192.481 32.6376" stroke="#111111" stroke-width="1.12795" stroke-linecap="round" stroke-linejoin="round"/>
<path d="M188.934 40.0854C187.75 40.7357 186.581 41.8113 185.727 41.7168C185.727 41.7168 185.667 42.3311 185.483 43.3954" stroke="#111111" stroke-width="1.12795" stroke-linecap="round" stroke-linejoin="round"/>
<path d="M180.632 41.3502C180.73 41.1101 180.82 40.8795 180.89 40.6602C181.287 39.6187 181.629 38.7907 181.924 38.1329C182.269 37.3578 182.77 36.6624 183.394 36.0901C184.018 35.5177 184.753 35.0806 185.552 34.8059C186.791 34.3787 188.246 33.9307 189.004 33.8835C190.481 33.7927 195.294 33.4222 195.335 34.1935C195.362 34.7114 193.226 35.3636 191.925 35.7057" stroke="#111111" stroke-width="1.12795" stroke-linecap="round" stroke-linejoin="round"/>
<path d="M188.9 35.0403C188.9 35.0403 192.386 35.4845 192.647 36.6584C192.908 37.8323 191.921 37.8984 191.921 37.8984" stroke="#111111" stroke-width="1.12795" stroke-linecap="round" stroke-linejoin="round"/>
<path d="M188.778 36.4467C188.778 36.4467 191.848 37.1064 192.021 38.2973C192.194 39.4882 191.205 39.4806 191.205 39.4806" stroke="#111111" stroke-width="1.12795" stroke-linecap="round" stroke-linejoin="round"/>
<path d="M188.564 38.1858C188.564 38.1858 192.243 39.0402 190.833 40.3464C189.423 41.6526 188.714 41.509 188.714 41.509C188.714 41.509 187.707 40.8644 189.333 39.8625" stroke="#111111" stroke-width="1.12795" stroke-linecap="round" stroke-linejoin="round"/>
<path d="M191.566 71.5063C191.566 71.5063 191.858 71.7975 197.89 71.408C197.46 69.8958 195.213 67.5783 193.566 66.0433L191.67 66.4063" stroke="#111111" stroke-width="1.12795" stroke-linecap="round" stroke-linejoin="round"/>
<path d="M192.801 66.3269C191.052 66.4097 189.315 66.6501 187.609 67.0452C186.026 67.4233 183.336 68.0622 183.097 68.4535C182.742 69.0206 183.561 69.3306 184.497 69.289" stroke="#111111" stroke-width="1.12795" stroke-linecap="round" stroke-linejoin="round"/>
<path d="M185.838 70.202C184.522 70.58 183.887 70.5214 184.208 69.8107C184.447 69.2795 188.096 67.2266 188.823 66.9752C189.551 66.7238 193.578 66.1265 193.578 66.1265" stroke="#111111" stroke-width="1.12795" stroke-linecap="round" stroke-linejoin="round"/>
<path d="M189.906 68.1587C189.002 68.5198 188.119 68.93 187.259 69.3874C186.114 70.0225 185.449 70.6785 185.55 70.8996C185.652 71.1208 186.569 71.5216 187.321 71.1813C188.363 70.4876 190.758 69.669 190.758 69.669C190.498 69.6331 188.851 70.48 187.938 70.8543C187.024 71.2286 186.349 72.1907 188.609 71.8769L192.027 71.4875" stroke="#111111" stroke-width="1.12795" stroke-linecap="round" stroke-linejoin="round"/>
<path d="M231.978 117.558L232.23 132.985C232.23 132.985 223.394 135.064 221.061 142.457L240.612 142.442L243.726 113.813L231.978 117.558Z" stroke="#111111" stroke-width="1.12795" stroke-linecap="round" stroke-linejoin="round"/>
<path d="M211.24 118.335L209.001 133.378C209.001 133.378 200.696 135.389 198.496 142.329L216.865 142.315L222.683 116.56L211.24 118.335Z" stroke="#111111" stroke-width="1.12795" stroke-linecap="round" stroke-linejoin="round"/>
<path d="M274.289 84.6364C271.232 85.3339 265.606 80.2887 265.606 80.2887L236.961 74.0317L236.268 78.1488L230.641 77.9976C216.389 77.3473 214.113 88.1562 214.113 88.1562L202.41 134.163L219.828 134.248L228.692 101.761L224.661 133.943L242.376 134.208L245.838 101.107C250.014 100.15 263.574 96.948 267.044 95.0709C270.554 93.7609 274.453 89.2696 274.289 84.6364Z" fill="#111111"/>
<path d="M240.863 35.6641C237.68 37.0251 237.18 39.1007 237.167 40.8889C232.234 44.834 229.228 49.0456 227.446 53.0285C225.299 51.0342 221.33 47.3802 220.317 46.7016C218.907 45.7564 218.012 47.4218 216.875 46.8396C215.738 46.2574 215.348 46.0835 215.348 46.0835C215.348 46.0835 214.36 49.6013 211.557 50.5578C211.557 50.5578 211.613 51.0834 212.241 52.1873C212.869 53.2912 211.513 54.0776 212.517 55.4367C213.521 56.7959 222.24 67.9998 222.24 67.9998C222.992 68.7559 224.485 70.8863 226.252 71.5914" stroke="#111111" stroke-width="1.12795" stroke-linecap="round" stroke-linejoin="round"/>
<path d="M265.517 80.2035C270.665 83.3849 271.667 86.1882 275.584 83.6382L274.878 69.1282C277.15 66.3986 278.073 61.5442 273.77 54.8317C270.503 49.7712 266.19 45.4779 261.124 42.2441C263.322 38.6393 262.933 34.9759 253.689 34.2386" stroke="#111111" stroke-width="1.12795" stroke-linecap="round" stroke-linejoin="round"/>
<path d="M246.716 68.6765L246.579 71.8995L242.447 72.4855L242.665 67.1189" fill="#5959FF"/>
<path d="M255.411 38.2782H254.981L255.385 38.7451C252.179 40.8778 249.271 43.4315 246.737 46.3385C244.998 44.3006 243.751 41.8853 243.096 39.282C242.05 40.7091 240.917 45.5672 242.41 49.9339C243.022 51.7316 243.208 56.5027 243.201 61.7389L247.587 61.41C247.634 60.7427 247.686 60.0867 247.741 59.4232C248.903 45.3612 257.802 39.8963 257.802 39.8963L255.411 38.2782Z" fill="#5959FF"/>
<path d="M211.748 42.8849C211.605 42.7885 207.321 40.0495 206.208 39.7603C205.095 39.471 204.946 40.8094 208.385 42.7281C207.866 43.2707 207.524 43.9594 207.405 44.7024C207.285 45.4453 207.394 46.2073 207.715 46.8867C208.035 47.6183 210.951 50.5294 211.953 50.6466C212.955 50.7638 216.7 49.777 215.912 47.433C215.124 45.0891 213.78 44.2516 211.748 42.8849Z" stroke="#111111" stroke-width="1.12795" stroke-linecap="round" stroke-linejoin="round"/>
<path d="M213.874 44.4578C213.874 44.4578 210.172 42.9872 209.796 43.2008C209.274 43.5013 209.853 45.0174 211.488 45.7508C211.488 45.7508 210.349 47.2385 210.977 48.3972" stroke="#111111" stroke-width="1.12795" stroke-linecap="round" stroke-linejoin="round"/>
<path d="M211.942 52.174C211.201 51.0568 211.088 50.5502 211.088 50.5502C213.771 49.9434 215.107 45.9492 215.107 45.9492C215.107 45.9492 215.632 46.0796 216.826 46.7564C217.307 47.0286 217.747 46.8112 218.091 46.7564C218.57 50.4916 213.797 53.4197 212.158 54.225C211.959 53.4557 212.506 53.0228 211.942 52.174Z" fill="#111111"/>
<path d="M243.504 61.9564C241.787 61.6146 240.043 61.4279 238.293 61.3988C236.665 61.3837 233.901 61.3515 233.572 61.671C233.095 62.1341 233.8 62.6256 234.7 62.8165" stroke="#111111" stroke-width="1.12795" stroke-linecap="round" stroke-linejoin="round"/>
<path d="M235.911 64.0301C234.471 64.0868 233.843 63.8865 234.33 63.2589C234.689 62.8014 238.722 61.6918 239.489 61.6181C240.256 61.5444 245.976 62.1852 245.976 62.1852" stroke="#111111" stroke-width="1.12795" stroke-linecap="round" stroke-linejoin="round"/>
<path d="M240.255 63.0339C239.292 63.1663 238.336 63.3505 237.392 63.5859C236.129 63.9262 235.324 64.4025 235.373 64.635C235.422 64.8675 236.214 65.4838 237.026 65.3363C238.202 64.9148 240.723 64.6993 240.723 64.6993C240.479 64.601 238.678 65.0244 237.704 65.1681C236.731 65.3118 235.843 66.0811 238.11 66.3231L246.382 67.7881" stroke="#111111" stroke-width="1.12795" stroke-linecap="round" stroke-linejoin="round"/>
<path d="M246.707 68.7519C245.592 68.3285 245.235 67.9958 245.235 67.9958C246.681 65.7274 245.235 61.9657 245.235 61.9657C245.235 61.9657 245.611 61.8655 246.784 61.6274C246.967 61.5924 247.14 61.5195 247.293 61.4134C247.446 61.3073 247.576 61.1703 247.673 61.0111C250.072 63.7445 248.632 68.5478 247.993 70.2888C247.431 69.7859 247.553 69.0714 246.707 68.7519Z" fill="#111111"/>
<path d="M262.32 57.9016C262.32 57.9016 259.936 58.136 259.331 61.2834" stroke="#111111" stroke-width="1.12795" stroke-linecap="round" stroke-linejoin="round"/>
<path d="M252.204 48.8489C252.204 48.8489 249.76 53.9414 249.435 57.4025" stroke="#111111" stroke-width="1.12795" stroke-linecap="round" stroke-linejoin="round"/>
<path d="M240.921 49.072C240.921 49.072 242.049 53.9453 241.673 57.4026" stroke="#111111" stroke-width="1.12795" stroke-linecap="round" stroke-linejoin="round"/>
<path d="M262.925 71.6442C262.925 71.6442 250.232 70.7766 248.808 70.4098C247.385 70.0431 247.912 68.9959 246.882 68.597C245.851 68.1982 245.521 67.8787 245.521 67.8787C246.857 65.7351 245.521 62.1832 245.521 62.1832C245.521 62.1832 245.872 62.0868 246.953 61.8637C248.034 61.6407 247.684 60.5197 249.149 60.3912C250.613 60.2626 263.179 61.7031 263.179 61.7031" stroke="#111111" stroke-width="1.12795" stroke-linecap="round" stroke-linejoin="round"/>
<path d="M227.664 53.1531C227.664 53.1531 230.587 55.3232 232.446 58.0679" stroke="#111111" stroke-width="1.12795" stroke-linecap="round" stroke-linejoin="round"/>
<path d="M260.795 41.6941C258.635 45.3235 254.18 49.3631 253.046 49.8886C253.046 49.8936 253.046 49.8987 253.046 49.9037C256.282 50.0625 263.837 45.8641 265.114 45.1269C263.546 43.9473 261.861 42.403 260.795 41.6941Z" fill="#5959FF"/>
<path d="M237.781 42.575C237.759 42.042 237.702 41.4276 237.713 40.7773C236.789 41.5108 235.373 42.2556 234.555 43.006C235.533 44.9115 237.514 47.7999 239.676 49.142C239.02 47.7847 237.928 45.9795 237.781 42.575Z" fill="#5959FF"/>
<path d="M254.762 28.2292C254.762 28.2292 257.582 28.2841 257.078 30.8228C256.721 32.6129 255.065 32.4087 254.121 32.1327" stroke="#111111" stroke-width="1.12795" stroke-linecap="round" stroke-linejoin="round"/>
<path d="M240.336 24.118C239.96 27.0764 240.12 30.2483 240.417 32.6339" stroke="#111111" stroke-width="1.12795" stroke-linecap="round" stroke-linejoin="round"/>
<path d="M253.793 34.0779L253.891 37.0116L255.394 38.7394C252.189 40.8721 249.28 43.4258 246.747 46.3328C245.153 44.4714 243.973 42.2892 243.286 39.9322" stroke="#111111" stroke-width="1.12795" stroke-linecap="round" stroke-linejoin="round"/>
<path d="M253.281 28.7662C252.817 29.2369 251.572 31.9495 251.268 33.2141C251.268 33.2141 248.185 32.1518 243.769 32.08C243.769 32.08 241.361 32.1291 240.4 32.4202C240.4 32.4202 240.609 36.9003 242.56 39.2253C244.511 41.5504 248.641 40.8964 250.578 39.5013C252.514 38.1063 252.834 37.4409 253.281 35.9494C253.729 34.458 254.913 28.8948 254.913 28.8948L253.281 28.7662Z" stroke="#111111" stroke-width="1.12795" stroke-linecap="round" stroke-linejoin="round"/>
<path d="M254.512 29.7246C254.512 29.7246 255.828 27.6623 256.349 25.5187C256.592 24.5419 256.495 23.5112 256.076 22.5969C255.657 21.6826 254.94 20.9395 254.044 20.4904C252.492 19.7343 251.341 20.3279 251.341 20.3279C251.341 20.3279 252.988 17.5094 250.516 15.018C250.083 14.5823 249.567 14.2402 248.998 14.0126C248.43 13.7851 247.821 13.6769 247.209 13.6948C246.366 13.7023 245.544 13.9567 244.843 14.4267C244.142 14.8967 243.592 15.562 243.261 16.3412C243.261 16.3412 240.03 10.3735 233.407 13.9046C232.739 14.2619 231.985 15.2543 231.626 15.9234C229.438 19.9763 236.648 24.7777 240.402 25.1576C244.523 25.5754 246.934 24.8892 248.262 23.8741C247.273 24.4771 248.384 30.6773 254.512 29.7246Z" fill="#111111"/>
<path d="M243.47 30.3617L243.024 34.2652L244.393 33.9136" stroke="#111111" stroke-width="1.12795" stroke-linecap="round" stroke-linejoin="round"/>
<path d="M241.846 30.7095C242.066 30.7095 242.244 30.4328 242.244 30.0914C242.244 29.75 242.066 29.4733 241.846 29.4733C241.625 29.4733 241.447 29.75 241.447 30.0914C241.447 30.4328 241.625 30.7095 241.846 30.7095Z" fill="#111111"/>
<path d="M245.506 30.6074C245.726 30.6074 245.905 30.3306 245.905 29.9892C245.905 29.6478 245.726 29.3711 245.506 29.3711C245.286 29.3711 245.107 29.6478 245.107 29.9892C245.107 30.3306 245.286 30.6074 245.506 30.6074Z" fill="#111111"/>
<path d="M247.591 27.4996C247.39 27.2412 247.124 27.0417 246.82 26.9216C246.517 26.8016 246.187 26.7656 245.865 26.8172" stroke="#111111" stroke-width="1.12795" stroke-linecap="round" stroke-linejoin="round"/>
<path d="M242.212 26.753C242.212 26.753 241.111 26.4657 240.834 27.3712" stroke="#111111" stroke-width="1.12795" stroke-linecap="round" stroke-linejoin="round"/>
<path d="M246.491 35.1876C246.491 35.1876 246.303 36.371 245.222 36.18" stroke="#111111" stroke-width="1.12795" stroke-linecap="round" stroke-linejoin="round"/>
<path d="M277.522 71.9808H24.0693V142.624H277.522V71.9808Z" stroke="#111111" stroke-width="1.12795" stroke-linecap="round" stroke-linejoin="round"/>
<path d="M23.6824 80.8318V71.9274H277.733V80.8318H23.6824Z" fill="#6D6D6D" stroke="#111111" stroke-width="0.187992"/>
<path d="M1.34863 142.722H300.651" stroke="#111111" stroke-width="1.12795" stroke-linecap="round" stroke-linejoin="round"/>
</svg>
