<svg width="302" height="101" viewBox="0 0 302 101" fill="none" xmlns="http://www.w3.org/2000/svg">
<path d="M216.594 50.5954L217.166 42.6619L222.84 43.0848L222.3 50.5954" stroke="#6D6D6D" stroke-width="0.982211" stroke-linecap="round" stroke-linejoin="round"/>
<path d="M213.879 87.9624L216.234 55.4332" stroke="#6D6D6D" stroke-width="0.982211" stroke-linecap="round" stroke-linejoin="round"/>
<path d="M221.826 55.5856L219.471 87.861" stroke="#6D6D6D" stroke-width="0.982211" stroke-linecap="round" stroke-linejoin="round"/>
<path d="M216.381 45.2331L223.134 45.7575L224.59 25.8475C225.015 20.0115 224.066 18.7936 221.581 18.5906C219.095 18.3876 218.18 20.4852 217.755 26.338L216.381 45.2331Z" fill="#6D6D6D"/>
<path d="M221.205 23.327L225.391 23.6484C226.307 23.716 227.026 24.5111 226.813 27.5052L225.751 42.222" stroke="#6D6D6D" stroke-width="0.982211" stroke-linecap="round" stroke-linejoin="round"/>
<path d="M225.751 43.3216C226.338 43.3216 226.813 42.8293 226.813 42.222C226.813 41.6148 226.338 41.1225 225.751 41.1225C225.164 41.1225 224.688 41.6148 224.688 42.222C224.688 42.8293 225.164 43.3216 225.751 43.3216Z" fill="#6D6D6D"/>
<path d="M200.668 50.5954L199.686 43.7107C199.359 41.427 198.607 39.2111 197.463 37.215L192.459 28.368C192.214 27.9282 191.674 27.7759 191.249 28.0297C191.037 28.165 190.873 28.368 190.824 28.6217L188.518 38.5852C187.995 40.835 187.897 43.1694 188.224 45.4699L188.96 50.5954" stroke="#6D6D6D" stroke-width="0.982211" stroke-linecap="round" stroke-linejoin="round"/>
<path d="M205.933 87.7596C205.933 87.5227 205.916 87.269 205.884 87.0322L201.338 55.4333" stroke="#6D6D6D" stroke-width="0.982211" stroke-linecap="round" stroke-linejoin="round"/>
<path d="M189.696 55.5856L194.307 87.7596" stroke="#6D6D6D" stroke-width="0.982211" stroke-linecap="round" stroke-linejoin="round"/>
<path d="M196.351 35.2527L192.459 28.351C192.214 27.9112 191.674 27.759 191.249 28.0127C191.036 28.148 190.873 28.351 190.824 28.6048L189.042 36.3522C190.987 35.6079 194.405 34.5253 196.351 35.2527Z" fill="#6D6D6D"/>
<path d="M199.441 42.4589C199.359 42.1036 199.278 41.7484 199.18 41.3932C197.544 41.2071 195.5 41.3763 194.062 42.9833C191.952 41.6977 189.581 42.4927 188.044 43.3216C188.061 43.6937 188.077 44.0828 188.11 44.455C189.45 43.6599 191.789 42.6788 193.702 43.9475L194.65 50.5954L195.664 50.7307L194.667 43.7952C195.942 42.2728 197.953 42.2221 199.441 42.4589Z" fill="#6D6D6D"/>
<path d="M196.351 55.7209H195.37L199.964 87.7427L200.962 87.7596L196.351 55.7209Z" fill="#6D6D6D"/>
<path d="M213.683 50.6123L212.702 43.7275C212.375 41.4439 211.623 39.2279 210.478 37.2318L205.475 28.3848C205.229 27.945 204.69 27.7928 204.265 28.0465C204.052 28.1819 203.889 28.3848 203.84 28.6386L201.534 38.602C201.011 40.8518 200.913 43.1862 201.24 45.4868L201.976 50.6123" stroke="#6D6D6D" stroke-width="0.982211" stroke-linecap="round" stroke-linejoin="round"/>
<path d="M218.965 87.7764C218.965 87.5395 218.949 87.2858 218.916 87.049L214.37 55.4501" stroke="#6D6D6D" stroke-width="0.982211" stroke-linecap="round" stroke-linejoin="round"/>
<path d="M202.711 55.6024L207.339 87.7764" stroke="#6D6D6D" stroke-width="0.982211" stroke-linecap="round" stroke-linejoin="round"/>
<path d="M209.366 35.2696L205.475 28.3679C205.23 27.9281 204.69 27.7759 204.265 28.0296C204.052 28.165 203.889 28.3679 203.84 28.6217L202.057 36.3691C204.003 35.6248 207.421 34.5422 209.366 35.2696Z" fill="#6D6D6D"/>
<path d="M212.473 42.4758C212.391 42.1206 212.31 41.7653 212.212 41.4101C210.576 41.224 208.532 41.3932 207.094 43.0002C204.984 41.7146 202.613 42.5096 201.076 43.3385C201.093 43.7106 201.109 44.0997 201.142 44.4719C202.482 43.6768 204.821 42.6957 206.734 43.9644L207.682 50.6123L208.696 50.7476L207.699 43.8121C208.958 42.2897 210.969 42.239 212.473 42.4758Z" fill="#6D6D6D"/>
<path d="M209.366 55.7378H208.385L212.98 87.7595L213.977 87.7764L209.366 55.7378Z" fill="#6D6D6D"/>
<path d="M192.819 82.5156L207.437 63.4176" stroke="#111111" stroke-width="0.982211" stroke-linecap="round" stroke-linejoin="round"/>
<path d="M194.994 87.8272L207.895 70.9114" stroke="#111111" stroke-width="0.982211" stroke-linecap="round" stroke-linejoin="round"/>
<path d="M200.962 87.7596L209.023 77.3394" stroke="#111111" stroke-width="0.982211" stroke-linecap="round" stroke-linejoin="round"/>
<path d="M206.374 87.9288L208.663 84.9178" stroke="#111111" stroke-width="0.982211" stroke-linecap="round" stroke-linejoin="round"/>
<path d="M191.004 76.7474L206.701 56.6006" stroke="#111111" stroke-width="0.982211" stroke-linecap="round" stroke-linejoin="round"/>
<path d="M203.791 87.7596L188.453 68.6447" stroke="#111111" stroke-width="0.982211" stroke-linecap="round" stroke-linejoin="round"/>
<path d="M197.397 87.8273L192.819 82.5157" stroke="#111111" stroke-width="0.982211" stroke-linecap="round" stroke-linejoin="round"/>
<path d="M207.224 62.944L201.354 55.5856" stroke="#111111" stroke-width="0.982211" stroke-linecap="round" stroke-linejoin="round"/>
<path d="M207.699 70.0486L196.04 55.6702" stroke="#111111" stroke-width="0.982211" stroke-linecap="round" stroke-linejoin="round"/>
<path d="M208.729 78.6081L190.251 55.5856" stroke="#111111" stroke-width="0.982211" stroke-linecap="round" stroke-linejoin="round"/>
<path d="M208.631 85.6451L184.578 55.6702" stroke="#111111" stroke-width="0.982211" stroke-linecap="round" stroke-linejoin="round"/>
<path d="M186.327 61.1171L190.497 55.6533" stroke="#111111" stroke-width="0.982211" stroke-linecap="round" stroke-linejoin="round"/>
<path d="M187.652 66.0734L195.762 55.4333" stroke="#111111" stroke-width="0.982211" stroke-linecap="round" stroke-linejoin="round"/>
<path d="M189.336 71.4189L201.501 55.5856" stroke="#111111" stroke-width="0.982211" stroke-linecap="round" stroke-linejoin="round"/>
<path d="M229.201 88.064L207.47 60.2712" stroke="#111111" stroke-width="0.982211" stroke-linecap="round" stroke-linejoin="round"/>
<path d="M222.889 87.9625L207.944 68.8476" stroke="#111111" stroke-width="0.982211" stroke-linecap="round" stroke-linejoin="round"/>
<path d="M216.757 87.9288L208.255 77.0519" stroke="#111111" stroke-width="0.982211" stroke-linecap="round" stroke-linejoin="round"/>
<path d="M211.312 87.9626L208.712 84.6133" stroke="#111111" stroke-width="0.982211" stroke-linecap="round" stroke-linejoin="round"/>
<path d="M232.586 84.1395L209.775 55.5856" stroke="#111111" stroke-width="0.982211" stroke-linecap="round" stroke-linejoin="round"/>
<path d="M213.193 87.7596L235.889 58.918" stroke="#111111" stroke-width="0.982211" stroke-linecap="round" stroke-linejoin="round"/>
<path d="M219.472 87.861L234.629 68.4755" stroke="#111111" stroke-width="0.982211" stroke-linecap="round" stroke-linejoin="round"/>
<path d="M225.407 88.0641L233.174 78.1514" stroke="#111111" stroke-width="0.982211" stroke-linecap="round" stroke-linejoin="round"/>
<path d="M230.885 88.064L232.324 86.2371" stroke="#111111" stroke-width="0.982211" stroke-linecap="round" stroke-linejoin="round"/>
<path d="M207.568 65.5998L216.692 55.4333" stroke="#111111" stroke-width="0.982211" stroke-linecap="round" stroke-linejoin="round"/>
<path d="M207.47 59.9668L211.427 55.8224" stroke="#111111" stroke-width="0.982211" stroke-linecap="round" stroke-linejoin="round"/>
<path d="M207.944 71.7233L221.172 55.4333" stroke="#111111" stroke-width="0.982211" stroke-linecap="round" stroke-linejoin="round"/>
<path d="M208.565 78.3036L226.405 55.5856" stroke="#111111" stroke-width="0.982211" stroke-linecap="round" stroke-linejoin="round"/>
<path d="M208.745 85.3576L233.354 55.6533" stroke="#111111" stroke-width="0.982211" stroke-linecap="round" stroke-linejoin="round"/>
<path d="M234.564 65.3968L226.781 55.4503" stroke="#111111" stroke-width="0.982211" stroke-linecap="round" stroke-linejoin="round"/>
<path d="M235.594 59.9668L232.226 55.6533" stroke="#111111" stroke-width="0.982211" stroke-linecap="round" stroke-linejoin="round"/>
<path d="M234.205 71.5372L221.63 55.4503" stroke="#111111" stroke-width="0.982211" stroke-linecap="round" stroke-linejoin="round"/>
<path d="M233.174 77.61L216.038 55.704" stroke="#111111" stroke-width="0.982211" stroke-linecap="round" stroke-linejoin="round"/>
<path d="M236.33 55.4503L232.095 87.9626" stroke="#111111" stroke-width="0.982211" stroke-linecap="round" stroke-linejoin="round"/>
<path d="M206.979 55.6533L208.876 87.6242" stroke="#111111" stroke-width="0.982211" stroke-linecap="round" stroke-linejoin="round"/>
<path d="M182.975 51.1198C183.4 50.7815 183.907 50.5954 184.447 50.5954H239.11C240.402 50.5954 241.464 51.678 241.464 53.0313C241.464 54.3676 240.418 55.4672 239.11 55.4672H206.407" stroke="#111111" stroke-width="0.982211" stroke-linecap="round" stroke-linejoin="round"/>
<path d="M206.423 55.4503H184.447" stroke="#111111" stroke-width="0.982211" stroke-linecap="round" stroke-linejoin="round"/>
<path d="M51.853 56.8711C51.8203 59.5269 51.3297 62.1488 50.4141 64.6186" stroke="#111111" stroke-width="0.982211" stroke-linecap="round" stroke-linejoin="round"/>
<path d="M52 59.5438L65.9805 62.2165" stroke="#111111" stroke-width="0.982211" stroke-linecap="round" stroke-linejoin="round"/>
<path d="M67.0439 65.4136L51.4937 62.4364" stroke="#111111" stroke-width="0.982211" stroke-linecap="round" stroke-linejoin="round"/>
<path d="M66.6022 63.8404L51.7388 60.9985" stroke="#111111" stroke-width="0.982211" stroke-linecap="round" stroke-linejoin="round"/>
<path d="M65.4248 59.4592L49.5639 56.4313C48.4357 56.2114 47.6835 55.1626 47.8797 54.0969C48.076 53.0312 49.1388 52.3208 50.2671 52.5407L64.1985 55.1964" stroke="#111111" stroke-width="0.982211" stroke-linecap="round" stroke-linejoin="round"/>
<path d="M68.842 72.366L47.438 68.2724C46.3097 68.0525 45.5576 67.0037 45.7538 65.938C45.95 64.8723 47.0128 64.1618 48.1411 64.3817L67.6647 68.1032" stroke="#111111" stroke-width="0.982211" stroke-linecap="round" stroke-linejoin="round"/>
<path d="M29.2387 84.9515C26.2137 85.9326 19.0354 88.876 22.4856 94.086" stroke="#5959FF" stroke-width="2.45553" stroke-linecap="round" stroke-linejoin="round"/>
<path d="M44.0205 81.7543L72.6846 86.1524" stroke="#111111" stroke-width="0.982211" stroke-linecap="round" stroke-linejoin="round"/>
<path d="M42.6631 78.9293L72.112 83.4459" stroke="#111111" stroke-width="0.982211" stroke-linecap="round" stroke-linejoin="round"/>
<path d="M43.9878 84.5454L73.5839 89.0789" stroke="#111111" stroke-width="0.982211" stroke-linecap="round" stroke-linejoin="round"/>
<path d="M43.2354 87.3704L74.9408 92.2252" stroke="#111111" stroke-width="0.982211" stroke-linecap="round" stroke-linejoin="round"/>
<path d="M41.584 89.5694L64.2961 93.0541" stroke="#111111" stroke-width="0.982211" stroke-linecap="round" stroke-linejoin="round"/>
<path d="M35.3374 75.4447C38.4769 75.8507 44.0527 77.3731 44.0364 83.6996C44.02 89.857 38.6731 91.8531 35.3374 92.0561" stroke="#111111" stroke-width="0.982211" stroke-linecap="round" stroke-linejoin="round"/>
<path d="M57.7389 93.0541L35.3374 93.2909V73.161L70.9509 80.3503" stroke="#111111" stroke-width="0.982211" stroke-linecap="round" stroke-linejoin="round"/>
<path d="M69.0216 73.2625L33.4572 66.53C31.8548 66.2255 30.3341 67.3251 30.0398 68.9828C30.0071 69.1689 29.9907 69.3381 29.9907 69.5241V97.4861" stroke="#111111" stroke-width="0.982211" stroke-linecap="round" stroke-linejoin="round"/>
<path d="M60.1924 13.6511L168.161 12.6192C169.763 12.6023 171.202 13.668 171.693 15.2412L194.471 87.8102L276.032 88.4699C276.032 88.4699 275.705 99.7528 268.608 99.7528H76.691L54.6656 21.3309C53.7663 18.1507 55.5323 14.8183 58.6227 13.8879C59.1296 13.7357 59.6528 13.6511 60.1924 13.6511Z" stroke="#111111" stroke-width="0.982211" stroke-linecap="round" stroke-linejoin="round"/>
<path d="M167.409 18.3369L187.488 80.5703C187.783 81.4669 187.309 82.4311 186.442 82.7356C186.278 82.7863 186.099 82.8201 185.919 82.8201L85.112 82.6171C84.3762 82.6171 83.7385 82.1097 83.5259 81.3992L65.7846 19.5717C65.523 18.6583 66.0135 17.711 66.8965 17.4403C67.0437 17.3896 67.2072 17.3727 67.3707 17.3727L165.823 17.1697C166.542 17.1697 167.18 17.6264 167.409 18.3369Z" stroke="#111111" stroke-width="0.982211" stroke-linecap="round" stroke-linejoin="round"/>
<path d="M109.532 42.2001C110.744 40.7268 110.13 38.1292 108.163 36.3981C106.195 34.6669 103.618 34.4578 102.407 35.9311C101.196 37.4043 101.809 40.0019 103.777 41.7331C105.744 43.4642 108.321 43.6733 109.532 42.2001Z" fill="#5959FF"/>
<path d="M100.793 51.5088C100.269 47.1276 102.984 43.829 107.464 43.829C111.944 43.829 116.719 47.1276 118.959 51.4919" fill="#5959FF"/>
<path d="M144.538 64.5661C145.749 63.0929 145.136 60.4952 143.168 58.7641C141.201 57.0329 138.624 56.8239 137.413 58.2971C136.202 59.7703 136.815 62.368 138.782 64.0991C140.75 65.8302 143.327 66.0393 144.538 64.5661Z" fill="#5959FF"/>
<path d="M135.801 73.9393C135.262 69.5243 137.96 66.2087 142.473 66.2087C146.986 66.2087 151.826 69.575 154.049 74.007" fill="#5959FF"/>
<path d="M139.557 37.5755C140.768 36.1023 140.155 33.5046 138.187 31.7735C136.22 30.0423 133.643 29.8333 132.432 31.3065C131.221 32.7797 131.834 35.3774 133.801 37.1085C135.769 38.8396 138.346 39.0487 139.557 37.5755Z" fill="#5959FF"/>
<path d="M130.274 46.9923C129.702 42.5603 132.417 39.211 136.93 39.211C141.475 39.211 146.332 42.5942 148.523 47.0769" fill="#5959FF"/>
<path d="M117.111 34.6945L122.491 51.7795H97.4407L91.3906 32.5292H110.604" stroke="#111111" stroke-width="0.982211" stroke-linecap="round" stroke-linejoin="round"/>
<path d="M149.291 36.8765L152.529 47.1614H127.478L121.428 27.8942H146.462L148.179 33.358" stroke="#111111" stroke-width="0.982211" stroke-linecap="round" stroke-linejoin="round"/>
<path d="M130.602 68.2724L126.399 54.892H151.433L157.5 74.1591H132.449L131.828 72.18" stroke="#111111" stroke-width="0.982211" stroke-linecap="round" stroke-linejoin="round"/>
<path d="M119.712 34.5084H111.225L110.146 31.0914H118.632L119.712 34.5084Z" stroke="#777777" stroke-width="0.982211" stroke-linecap="round" stroke-linejoin="round"/>
<path d="M153.003 36.8765H144.517L143.438 33.4426H151.924L153.003 36.8765Z" stroke="#777777" stroke-width="0.982211" stroke-linecap="round" stroke-linejoin="round"/>
<path d="M133.528 71.8586H125.042L123.963 68.4247H132.433L133.528 71.8586Z" stroke="#777777" stroke-width="0.982211" stroke-linecap="round" stroke-linejoin="round"/>
<path d="M87.4829 32.5292L93.5329 51.7795" stroke="#111111" stroke-width="0.982211" stroke-linecap="round" stroke-linejoin="round"/>
<path d="M124.502 48.0748L125.679 51.7794H141.507" stroke="#111111" stroke-width="0.982211" stroke-linecap="round" stroke-linejoin="round"/>
<path d="M143.781 34.4914L146.397 37.0965L152.938 32.0724" stroke="#111111" stroke-width="0.982211" stroke-linecap="round" stroke-linejoin="round"/>
<path d="M124.666 69.5073L127.282 72.1123L133.806 67.0883" stroke="#111111" stroke-width="0.982211" stroke-linecap="round" stroke-linejoin="round"/>
<path d="M110.62 32.0386L113.253 34.6436L119.777 29.6196" stroke="#111111" stroke-width="0.982211" stroke-linecap="round" stroke-linejoin="round"/>
<path d="M119.924 54.8582H123.505L126.547 64.534" stroke="#111111" stroke-width="0.982211" stroke-linecap="round" stroke-linejoin="round"/>
<path d="M120.529 25.0524C120.725 25.2044 145.628 25.2213 145.579 25.0524" stroke="#111111" stroke-width="0.982211" stroke-linecap="round" stroke-linejoin="round"/>
<path d="M61.0584 13.6342C61.0584 13.6342 58.1805 13.9387 59.9956 20.3329C61.8106 26.7271 81.8411 99.4314 81.8411 99.4314" stroke="#111111" stroke-width="0.982211" stroke-linecap="round" stroke-linejoin="round"/>
<path d="M193.538 87.269H78.6528" stroke="#111111" stroke-width="0.982211" stroke-linecap="round" stroke-linejoin="round"/>
<path d="M275.082 92.4959H188.779" stroke="#111111" stroke-width="0.982211" stroke-linecap="round" stroke-linejoin="round"/>
<path d="M189.401 87.269C189.401 87.269 188.861 100.683 181.977 99.9728" stroke="#111111" stroke-width="0.982211" stroke-linecap="round" stroke-linejoin="round"/>
<path d="M105.731 89.9586H99.0758C97.7186 89.9586 96.623 91.0919 96.623 92.4959V94.9487C96.623 96.3528 97.7186 97.4861 99.0758 97.4861H105.731C107.088 97.4861 108.184 96.3528 108.184 94.9487V92.4959C108.184 91.0919 107.088 89.9586 105.731 89.9586ZM107.202 94.9487C107.202 95.7945 106.548 96.4712 105.731 96.4712H99.0758C98.2582 96.4712 97.6041 95.7945 97.6041 94.9487V92.4959C97.6041 92.479 97.6041 92.4452 97.6041 92.4283H107.202C107.202 92.4452 107.202 92.479 107.202 92.4959V94.9487Z" fill="#111111"/>
<path d="M120.529 89.9586H113.874C112.516 89.9586 111.421 91.0919 111.421 92.4959V94.9487C111.421 96.3528 112.516 97.4861 113.874 97.4861H120.529C121.886 97.4861 122.981 96.3528 122.981 94.9487V92.4959C122.981 91.0919 121.886 89.9586 120.529 89.9586ZM122 94.9487C122 95.7945 121.346 96.4712 120.529 96.4712H113.874C113.056 96.4712 112.402 95.7945 112.402 94.9487V92.4959C112.402 92.479 112.402 92.4452 112.402 92.4283H122C122 92.4452 122 92.479 122 92.4959V94.9487Z" fill="#111111"/>
<path d="M84.1629 90.6663H87.891C88.8248 90.6663 89.6079 91.4564 89.6079 92.4452V94.8303C89.6079 95.8032 88.8402 96.6092 87.891 96.6092H84.1629C83.2292 96.6092 82.4461 95.8192 82.4461 94.8303V92.4459C82.4621 91.4551 83.2305 90.6663 84.1629 90.6663Z" fill="#6D6D6D" stroke="#5959FF" stroke-width="0.163702"/>
<path d="M22.4854 94.0861C26.3279 99.8713 41.453 98.9071 55.7442 94.509C70.0354 90.1108 83.5744 93.7139 83.5744 93.7139" stroke="#5959FF" stroke-width="2.45553" stroke-linecap="round" stroke-linejoin="round"/>
<path d="M125.516 11.5366H108.086C107.301 11.5366 106.548 11.8242 105.96 12.3317L104.93 13.2282L109.541 13.1775C109.524 13.3466 109.508 13.5158 109.508 13.6849V14.7168C109.508 15.3934 110.031 15.9347 110.685 15.9347H125.516C126.17 15.9347 126.693 14.9705 126.693 13.7864V13.668C126.693 12.4839 126.17 11.5366 125.516 11.5366Z" fill="#6D6D6D"/>
<path d="M120.382 9.89581H112.942V11.8919H120.382V9.89581Z" fill="#5959FF"/>
<path d="M125.958 0H107.562C106.483 0 105.6 0.913456 105.6 2.0299V7.86588C105.6 8.98232 106.483 9.89578 107.562 9.89578H125.958C127.037 9.89578 127.92 8.98232 127.92 7.86588V2.0299C127.92 0.913456 127.037 0 125.958 0ZM111.078 8.83008C111.356 8.83008 111.568 9.04999 111.568 9.33755C111.568 9.62512 111.356 9.84503 111.078 9.84503C110.129 9.84503 109.377 9.04998 109.377 8.08578V1.82691C109.377 0.845793 110.146 0.0676634 111.078 0.0676634C111.356 0.0676634 111.568 0.28757 111.568 0.575139C111.568 0.862709 111.356 1.08262 111.078 1.08262C110.685 1.08262 110.358 1.42093 110.358 1.82691V8.08578C110.358 8.49176 110.669 8.81316 111.078 8.83008ZM120.365 8.55943C118.812 8.55943 117.553 7.02008 117.553 5.12551C117.553 3.23093 118.812 1.69159 120.365 1.69159C121.919 1.69159 123.178 3.23093 123.178 5.12551C123.178 7.02008 121.919 8.55943 120.365 8.55943Z" fill="#5959FF"/>
<path d="M120.366 2.70654C119.352 2.70654 118.534 3.78916 118.534 5.12551C118.534 6.46186 119.352 7.54448 120.366 7.54448C121.379 7.54448 122.197 6.46186 122.197 5.12551C122.197 3.78916 121.379 2.70654 120.366 2.70654Z" fill="#5959FF"/>
<path d="M115.1 6.36034C115.642 6.36034 116.081 5.80748 116.081 5.12548C116.081 4.44349 115.642 3.89062 115.1 3.89062C114.558 3.89062 114.119 4.44349 114.119 5.12548C114.119 5.80748 114.558 6.36034 115.1 6.36034Z" fill="white"/>
<path d="M1 99.9728H301" stroke="#111111" stroke-width="0.982211" stroke-linecap="round" stroke-linejoin="round"/>
</svg>
