<svg width="24" height="24" viewBox="0 0 24 24" fill="none" xmlns="http://www.w3.org/2000/svg">
<g id="Icons">
<path id="Vector" d="M19.3486 5.17923L16.1111 8.31812L12.9147 3.93562C12.8285 3.76726 12.6974 3.62598 12.536 3.52732C12.3746 3.42867 12.1892 3.37646 12 3.37646C11.8108 3.37646 11.6254 3.42867 11.464 3.52732C11.3026 3.62598 11.1715 3.76726 11.0853 3.93562L7.88889 8.31812L4.65139 5.17923C4.53548 4.99169 4.36233 4.84639 4.15752 4.76479C3.95271 4.68319 3.72709 4.66961 3.51397 4.72606C3.30085 4.78251 3.11153 4.90599 2.97397 5.07827C2.8364 5.25056 2.75788 5.46251 2.75 5.68284V15.4848C2.75 16.8477 3.29142 18.1548 4.25515 19.1186C5.21887 20.0823 6.52597 20.6237 7.88889 20.6237H16.1111C17.474 20.6237 18.7811 20.0823 19.7449 19.1186C20.7086 18.1548 21.25 16.8477 21.25 15.4848V5.68284C21.2421 5.46251 21.1636 5.25056 21.026 5.07827C20.8885 4.90599 20.6991 4.78251 20.486 4.72606C20.2729 4.66961 20.0473 4.68319 19.8425 4.76479C19.6377 4.84639 19.4645 4.99169 19.3486 5.17923Z" stroke="#FEFEFE" stroke-width="1.5" stroke-linecap="round" stroke-linejoin="round"/>
<path id="Vector_2" d="M8 16.5125H16" stroke="#FEFEFE" stroke-width="1.5" stroke-linecap="round" stroke-linejoin="round"/>
</g>
</svg>
