<svg width="302" height="134" viewBox="0 0 302 134" fill="none" xmlns="http://www.w3.org/2000/svg">
<path d="M176.349 50.2921H218.688C218.768 50.2921 218.848 50.308 218.922 50.339C218.997 50.37 219.065 50.4154 219.122 50.4726C219.179 50.5299 219.224 50.5978 219.255 50.6726C219.286 50.7474 219.301 50.8276 219.301 50.9085V82.9575" stroke="#111111" stroke-width="1.09383" stroke-linecap="round" stroke-linejoin="round"/>
<path d="M147.113 50.2921H165.069" stroke="#111111" stroke-width="1.09383" stroke-linecap="round" stroke-linejoin="round"/>
<path d="M133.903 50.2921H136.973" stroke="#6D6D6D" stroke-width="1.09383" stroke-linecap="round" stroke-linejoin="round"/>
<path d="M90.2319 109.473V50.9176C90.2319 50.7541 90.2966 50.5973 90.4117 50.4817C90.5269 50.3661 90.683 50.3011 90.8458 50.3011H95.8659" stroke="#111111" stroke-width="1.09383" stroke-linecap="round" stroke-linejoin="round"/>
<path d="M191.988 107.551H150.727V55.5165H162.373" stroke="#111111" stroke-width="1.09383" stroke-linecap="round" stroke-linejoin="round"/>
<path d="M174.342 55.5165H192.457V89.4931" stroke="#111111" stroke-width="1.09383" stroke-linecap="round" stroke-linejoin="round"/>
<path d="M157.054 63.8398H155.567V59.9228H159.55L157.054 63.8398Z" stroke="#111111" stroke-width="1.09383" stroke-linecap="round" stroke-linejoin="round"/>
<path d="M155.765 63.7333L157.14 63.4197" stroke="#111111" stroke-width="1.09383" stroke-linecap="round" stroke-linejoin="round"/>
<path d="M164.24 79.7297H155.567V88.4384H164.24V79.7297Z" stroke="#111111" stroke-width="1.09383" stroke-linecap="round" stroke-linejoin="round"/>
<path d="M164.24 79.7297L155.567 88.4384" stroke="#111111" stroke-width="1.09383" stroke-linecap="round" stroke-linejoin="round"/>
<path d="M176.081 84.8778V88.4384H167.408V79.7297H176.081V83.3085" stroke="#111111" stroke-width="1.09383" stroke-linecap="round" stroke-linejoin="round"/>
<path d="M176.081 79.7297L167.408 88.4384" stroke="#111111" stroke-width="1.09383" stroke-linecap="round" stroke-linejoin="round"/>
<path d="M179.25 82.9575V79.7297H187.922V85.1888" stroke="#111111" stroke-width="1.09383" stroke-linecap="round" stroke-linejoin="round"/>
<path d="M187.922 79.7297L184.167 83.5012" stroke="#111111" stroke-width="1.09383" stroke-linecap="round" stroke-linejoin="round"/>
<path d="M164.24 71.2228V77.2147H155.567V75.6745" stroke="#111111" stroke-width="1.09383" stroke-linecap="round" stroke-linejoin="round"/>
<path d="M176.081 68.5042H167.408V77.2129H176.081V68.5042Z" stroke="#111111" stroke-width="1.09383" stroke-linecap="round" stroke-linejoin="round"/>
<path d="M176.081 68.5042L167.408 77.2148" stroke="#111111" stroke-width="1.09383" stroke-linecap="round" stroke-linejoin="round"/>
<path d="M187.922 68.5042H179.25V77.2129H187.922V68.5042Z" stroke="#111111" stroke-width="1.09383" stroke-linecap="round" stroke-linejoin="round"/>
<path d="M187.922 68.5042L179.25 77.2148" stroke="#111111" stroke-width="1.09383" stroke-linecap="round" stroke-linejoin="round"/>
<path d="M167.357 95.1633H158.404V102.737H167.357V95.1633Z" stroke="#111111" stroke-width="1.09383" stroke-linecap="round" stroke-linejoin="round"/>
<path d="M188.138 102.737H155.567V92.8719H180.676" stroke="#111111" stroke-width="1.09383" stroke-linecap="round" stroke-linejoin="round"/>
<path d="M170.977 95.4506H181.568" stroke="#111111" stroke-width="1.09383" stroke-linecap="round" stroke-linejoin="round"/>
<path d="M170.977 97.3491H183.399" stroke="#111111" stroke-width="1.09383" stroke-linecap="round" stroke-linejoin="round"/>
<path d="M170.555 62.4141H176.041" stroke="#111111" stroke-width="1.09383" stroke-linecap="round" stroke-linejoin="round"/>
<path d="M177.803 62.4141H187.606" stroke="#111111" stroke-width="1.09383" stroke-linecap="round" stroke-linejoin="round"/>
<path d="M161.785 132.844V110.731H195.056" stroke="#111111" stroke-width="1.09383" stroke-linecap="round" stroke-linejoin="round"/>
<path d="M178.417 115.139H166.626V119.054H178.417V115.139Z" stroke="#111111" stroke-width="1.09383" stroke-linecap="round" stroke-linejoin="round"/>
<path d="M166.825 118.949L178.415 115.139" stroke="#111111" stroke-width="1.09383" stroke-linecap="round" stroke-linejoin="round"/>
<path d="M175.298 123.721H166.626V132.429H175.298V123.721Z" stroke="#111111" stroke-width="1.09383" stroke-linecap="round" stroke-linejoin="round"/>
<path d="M175.298 123.721L166.626 132.429" stroke="#111111" stroke-width="1.09383" stroke-linecap="round" stroke-linejoin="round"/>
<path d="M187.141 123.721H178.468V132.429H187.141V123.721Z" stroke="#111111" stroke-width="1.09383" stroke-linecap="round" stroke-linejoin="round"/>
<path d="M187.141 123.721L178.468 132.429" stroke="#111111" stroke-width="1.09383" stroke-linecap="round" stroke-linejoin="round"/>
<path d="M198.981 123.721H190.308V132.429H198.981V123.721Z" stroke="#111111" stroke-width="1.09383" stroke-linecap="round" stroke-linejoin="round"/>
<path d="M198.981 123.721L190.308 132.429" stroke="#111111" stroke-width="1.09383" stroke-linecap="round" stroke-linejoin="round"/>
<path d="M181.614 117.63H187.101" stroke="#111111" stroke-width="1.09383" stroke-linecap="round" stroke-linejoin="round"/>
<path d="M188.861 117.63H198.664" stroke="#111111" stroke-width="1.09383" stroke-linecap="round" stroke-linejoin="round"/>
<path d="M102.347 63.3925H143.661V115.427H108.571" stroke="#111111" stroke-width="1.09383" stroke-linecap="round" stroke-linejoin="round"/>
<path d="M101.931 108.333V73.1359" stroke="#111111" stroke-width="1.09383" stroke-linecap="round" stroke-linejoin="round"/>
<path d="M107.157 67.8004H118.561V71.7156H116.098" stroke="#111111" stroke-width="1.09383" stroke-linecap="round" stroke-linejoin="round"/>
<path d="M111.449 70.1372L118.561 67.8004" stroke="#111111" stroke-width="1.09383" stroke-linecap="round" stroke-linejoin="round"/>
<path d="M106.771 76.9147H114.174" stroke="#111111" stroke-width="1.09383" stroke-linecap="round" stroke-linejoin="round"/>
<path d="M106.969 80.648C107.288 80.648 107.547 80.3883 107.547 80.068C107.547 79.7476 107.288 79.4879 106.969 79.4879C106.65 79.4879 106.391 79.7476 106.391 80.068C106.391 80.3883 106.65 80.648 106.969 80.648Z" stroke="#111111" stroke-width="1.09383" stroke-linecap="round" stroke-linejoin="round"/>
<path d="M106.969 83.6377C107.288 83.6377 107.547 83.378 107.547 83.0576C107.547 82.7373 107.288 82.4775 106.969 82.4775C106.65 82.4775 106.391 82.7373 106.391 83.0576C106.391 83.378 106.65 83.6377 106.969 83.6377Z" stroke="#111111" stroke-width="1.09383" stroke-linecap="round" stroke-linejoin="round"/>
<path d="M106.969 86.6291C107.288 86.6291 107.547 86.3693 107.547 86.049C107.547 85.7286 107.288 85.4689 106.969 85.4689C106.65 85.4689 106.391 85.7286 106.391 86.049C106.391 86.3693 106.65 86.6291 106.969 86.6291Z" stroke="#111111" stroke-width="1.09383" stroke-linecap="round" stroke-linejoin="round"/>
<path d="M106.969 89.6187C107.288 89.6187 107.547 89.359 107.547 89.0386C107.547 88.7182 107.288 88.4585 106.969 88.4585C106.65 88.4585 106.391 88.7182 106.391 89.0386C106.391 89.359 106.65 89.6187 106.969 89.6187Z" stroke="#111111" stroke-width="1.09383" stroke-linecap="round" stroke-linejoin="round"/>
<path d="M109.075 80.0679H114.854" stroke="#111111" stroke-width="1.09383" stroke-linecap="round" stroke-linejoin="round"/>
<path d="M109.075 83.0576H113.188" stroke="#111111" stroke-width="1.09383" stroke-linecap="round" stroke-linejoin="round"/>
<path d="M109.075 86.049H111.69" stroke="#111111" stroke-width="1.09383" stroke-linecap="round" stroke-linejoin="round"/>
<path d="M109.075 89.0386H115.546" stroke="#111111" stroke-width="1.09383" stroke-linecap="round" stroke-linejoin="round"/>
<path d="M106.771 92.4446H118.56" stroke="#111111" stroke-width="1.09383" stroke-linecap="round" stroke-linejoin="round"/>
<path d="M106.969 96.178C107.288 96.178 107.547 95.9183 107.547 95.5979C107.547 95.2775 107.288 95.0178 106.969 95.0178C106.65 95.0178 106.391 95.2775 106.391 95.5979C106.391 95.9183 106.65 96.178 106.969 96.178Z" stroke="#111111" stroke-width="1.09383" stroke-linecap="round" stroke-linejoin="round"/>
<path d="M106.969 99.1675C107.288 99.1675 107.547 98.9078 107.547 98.5874C107.547 98.267 107.288 98.0073 106.969 98.0073C106.65 98.0073 106.391 98.267 106.391 98.5874C106.391 98.9078 106.65 99.1675 106.969 99.1675Z" stroke="#111111" stroke-width="1.09383" stroke-linecap="round" stroke-linejoin="round"/>
<path d="M109.075 95.5978H116.839" stroke="#111111" stroke-width="1.09383" stroke-linecap="round" stroke-linejoin="round"/>
<path d="M109.075 98.5875H112.132" stroke="#111111" stroke-width="1.09383" stroke-linecap="round" stroke-linejoin="round"/>
<path d="M128.306 75.6417H139.126V89.6185H121.759V84.2922" stroke="#111111" stroke-width="1.09383" stroke-linecap="round" stroke-linejoin="round"/>
<path d="M121.757 89.6187L139.126 75.6418" stroke="#111111" stroke-width="1.09383" stroke-linecap="round" stroke-linejoin="round"/>
<path d="M126.413 92.8992H121.757V97.5745H126.413V92.8992Z" stroke="#111111" stroke-width="1.09383" stroke-linecap="round" stroke-linejoin="round"/>
<path d="M126.413 92.8992L121.757 97.5745" stroke="#111111" stroke-width="1.09383" stroke-linecap="round" stroke-linejoin="round"/>
<path d="M132.769 92.8992H128.113V97.5745H132.769V92.8992Z" stroke="#111111" stroke-width="1.09383" stroke-linecap="round" stroke-linejoin="round"/>
<path d="M132.769 92.8992L128.113 97.5745" stroke="#111111" stroke-width="1.09383" stroke-linecap="round" stroke-linejoin="round"/>
<path d="M139.126 92.8992H134.47V97.5745H139.126V92.8992Z" stroke="#111111" stroke-width="1.09383" stroke-linecap="round" stroke-linejoin="round"/>
<path d="M139.126 92.8992L134.47 97.5745" stroke="#111111" stroke-width="1.09383" stroke-linecap="round" stroke-linejoin="round"/>
<path d="M131.75 103.039H124.796V109.136H131.75V103.039Z" stroke="#111111" stroke-width="1.09383" stroke-linecap="round" stroke-linejoin="round"/>
<path d="M139.34 100.748H121.757V109.136H139.34V100.748Z" stroke="#111111" stroke-width="1.09383" stroke-linecap="round" stroke-linejoin="round"/>
<path d="M133.956 103.328H137.402" stroke="#111111" stroke-width="1.09383" stroke-linecap="round" stroke-linejoin="round"/>
<path d="M133.956 105.225H137.402" stroke="#111111" stroke-width="1.09383" stroke-linecap="round" stroke-linejoin="round"/>
<path d="M121.757 70.2917H127.245" stroke="#111111" stroke-width="1.09383" stroke-linecap="round" stroke-linejoin="round"/>
<path d="M129.006 70.2917H138.809" stroke="#111111" stroke-width="1.09383" stroke-linecap="round" stroke-linejoin="round"/>
<path d="M130.613 52.6797H122.206V61.1212H130.613V52.6797Z" fill="#5959FF"/>
<path d="M121.4 120.355H112.354V129.438H121.4V120.355Z" fill="#5959FF"/>
<path d="M117.391 119.931H108.984V128.372H117.391V119.931Z" fill="#5959FF"/>
<path d="M207.237 61.1266H198.83V69.5681H207.237V61.1266Z" fill="#5959FF"/>
<path d="M209.718 70.2444H201.311V78.6859H209.718V70.2444Z" fill="#5959FF"/>
<path d="M213.066 81.4427H204.659V89.8841H213.066V81.4427Z" fill="#5959FF"/>
<path d="M203.388 79.5842H194.982V88.0256H203.388V79.5842Z" fill="#5959FF"/>
<path d="M199.185 70.3554H190.779V78.7968H199.185V70.3554Z" fill="#5959FF"/>
<path d="M197.447 60.3137H189.04V68.7551H197.447V60.3137Z" fill="#5959FF"/>
<path d="M139.883 119.5H131.477V127.941H139.883V119.5Z" fill="#5959FF"/>
<path d="M128.704 82.5283L121.746 82.3047L120.652 75.3235L123.161 74.0869H128.704V82.5283Z" fill="#5959FF"/>
<path d="M143.952 119.767H134.906V128.851H143.952V119.767Z" fill="#5959FF"/>
<path d="M154.93 108.604H146.524V117.045H154.93V108.604Z" fill="#5959FF"/>
<path d="M162.781 118.096H154.375V126.538H162.781V118.096Z" fill="#5959FF"/>
<path d="M141.177 57.5496H132.77V65.991H141.177V57.5496Z" fill="#5959FF"/>
<path d="M120.587 57.8533H112.181V66.2947H120.587V57.8533Z" fill="#5959FF"/>
<path d="M123.367 109.697H114.96V118.138H123.367V109.697Z" fill="#5959FF"/>
<path d="M157.721 65.9783C156.129 66.8875 155.3 68.195 154.099 70.0008C153.996 70.1572 150.99 74.9107 150.68 76.1527C150.37 77.3947 151.835 77.5475 153.94 73.7305C153.94 73.7305 156.2 76.6655 157.804 76.0254C158.621 75.6999 162.497 70.8664 162.623 69.7534" stroke="#111111" stroke-width="1.09383" stroke-linecap="round" stroke-linejoin="round"/>
<path d="M159.615 73.816C159.615 73.816 159.434 72.2411 158.692 72.9558C157.949 73.6705 156.519 75.5453 156.519 75.5453" stroke="#111111" stroke-width="1.09383" stroke-linecap="round" stroke-linejoin="round"/>
<path d="M158.397 72.8121C158.397 72.8121 158.418 71.03 157.129 72.2157C156.367 72.914 155.24 74.5233 155.24 74.5233" stroke="#111111" stroke-width="1.09383" stroke-linecap="round" stroke-linejoin="round"/>
<path d="M157.083 71.8302C157.083 71.8302 156.707 70.5573 155.961 71.2719C155.215 71.9866 154.097 73.5469 154.097 73.5469" stroke="#111111" stroke-width="1.09383" stroke-linecap="round" stroke-linejoin="round"/>
<path d="M155.837 67.6476C155.837 67.6476 154.229 71.7555 154.466 72.172C154.796 72.7521 156.458 72.1047 157.262 70.2771C157.262 70.2771 158.892 71.5391 160.16 70.8408" stroke="#111111" stroke-width="1.09383" stroke-linecap="round" stroke-linejoin="round"/>
<path d="M177.645 29.0176C174.119 31.2907 171.276 33.8075 170.484 35.9278C169.09 39.6775 163.918 53.1762 163.918 53.1762L156.462 64.8145L164.611 71.0792L172.571 59.0117L176.122 50.2829L192.929 50.2357L211.177 50.2829C213.169 50.2502 214.317 48.3063 213.859 46.5714C213.859 46.5714 207.542 34.2621 204.165 30.2323C201.253 25.7498 197.43 21.9291 192.359 22.7002C191.742 22.7967 191.13 22.9253 190.526 23.0857" stroke="#111111" stroke-width="1.09383" stroke-linecap="round" stroke-linejoin="round"/>
<path d="M188.455 45.3021L199.502 42.3234L194.427 36.377" stroke="#111111" stroke-width="1.09383" stroke-linecap="round" stroke-linejoin="round"/>
<path d="M185.899 46.1113C184.444 46.0846 182.99 46.1892 181.553 46.4241C180.249 46.6514 178.034 47.0315 177.879 47.3334C177.516 48.0607 179.67 48.3844 180.504 47.7789" stroke="#111111" stroke-width="1.09383" stroke-linecap="round" stroke-linejoin="round"/>
<path d="M180.635 48.881C179.434 49.1665 178.824 49.1119 179.005 48.5173C179.139 48.0935 181.986 46.6024 182.573 46.4315C183.16 46.2605 188.46 45.4858 188.46 45.4858L191.099 50.5194L183.181 50.6449C181.291 50.7831 181.611 49.8266 182.334 49.5683C183.056 49.3101 184.358 48.7009 184.587 48.7446C184.587 48.7446 182.647 49.2901 181.848 49.8047C181.251 50.043 180.412 49.6611 180.296 49.4792C180.181 49.2974 180.659 48.7937 181.564 48.3336C182.245 48.0003 182.946 47.71 183.663 47.4644" stroke="#111111" stroke-width="1.09383" stroke-linecap="round" stroke-linejoin="round"/>
<path d="M176.759 27.2609L177.945 29.6067L176.047 30.8251C176.112 31.2342 180.279 35.9005 185.674 33.3437C189.213 31.6652 188.436 27.6591 188.264 24.1931L185.71 25.5478L183.175 19.365" stroke="#111111" stroke-width="1.09383" stroke-linecap="round" stroke-linejoin="round"/>
<path d="M182.79 18.7667C182.79 18.7667 186.477 18.4394 185.507 15.1298C184.772 12.6148 182.348 13.2877 181.22 13.7586" stroke="#111111" stroke-width="1.09383" stroke-linecap="round" stroke-linejoin="round"/>
<path d="M169.009 20.0579C169.472 21.5654 172.375 28.2502 177.176 27.1863C181.977 26.1225 183.591 20.7525 182.513 16.1627C181.436 11.5728 178.203 8.54687 175.144 9.14333C172.086 9.7398 165.648 9.14697 169.009 20.0579Z" stroke="#111111" stroke-width="1.09383" stroke-linecap="round" stroke-linejoin="round"/>
<path d="M176.121 22.311C175.614 22.8012 174.963 23.1127 174.264 23.1984C174.219 23.2043 174.175 23.2209 174.137 23.247C174.099 23.2731 174.067 23.3079 174.045 23.3486C174.023 23.3892 174.011 23.4345 174.01 23.4808C174.008 23.5271 174.018 23.573 174.038 23.6148C174.272 24.1404 174.838 24.9496 176.03 24.5114C177.278 24.0531 176.879 22.9529 176.573 22.3928C176.553 22.3534 176.523 22.3192 176.488 22.2929C176.452 22.2665 176.41 22.2487 176.367 22.2408C176.323 22.2329 176.278 22.2352 176.236 22.2473C176.193 22.2595 176.154 22.2813 176.121 22.311Z" fill="#111111"/>
<path d="M174.337 21.049L172.948 21.5272L171.906 15.5935" stroke="#111111" stroke-width="1.09383" stroke-linecap="round" stroke-linejoin="round"/>
<path d="M175.481 15.2977C175.481 15.2977 174.141 14.5594 173.501 15.5894" stroke="#111111" stroke-width="1.09383" stroke-linecap="round" stroke-linejoin="round"/>
<path d="M170.61 16.5483C170.61 16.5483 169.184 16.0022 168.695 17.1235" stroke="#111111" stroke-width="1.09383" stroke-linecap="round" stroke-linejoin="round"/>
<path d="M175.273 19.2715C175.522 19.1704 175.595 18.7668 175.436 18.37C175.276 17.9733 174.945 17.7336 174.695 17.8346C174.446 17.9357 174.373 18.3393 174.532 18.7361C174.692 19.1328 175.023 19.3725 175.273 19.2715Z" fill="#111111"/>
<path d="M170.878 21.1279C171.127 21.0268 171.2 20.6233 171.041 20.2265C170.881 19.8297 170.55 19.59 170.3 19.6911C170.051 19.7921 169.978 20.1957 170.137 20.5925C170.297 20.9893 170.628 21.229 170.878 21.1279Z" fill="#111111"/>
<path d="M191.04 29.6299C191.909 27.9623 191.066 25.7974 189.157 24.7945C187.248 23.7916 184.997 24.3304 184.128 25.998C183.259 27.6656 184.102 29.8305 186.01 30.8335C187.919 31.8364 190.171 31.2975 191.04 29.6299Z" fill="#111111"/>
<path d="M190.742 35.2834C191.517 33.7947 190.765 31.8619 189.061 30.9666C187.356 30.0712 185.346 30.5522 184.57 32.041C183.795 33.5298 184.547 35.4625 186.251 36.3578C187.956 37.2532 189.966 36.7722 190.742 35.2834Z" fill="#111111"/>
<path d="M188.554 40.4486C187.873 41.6579 186.2 42.0089 184.804 41.2342C183.407 40.4595 182.841 38.8501 183.521 37.6408C184.202 36.4316 185.888 35.986 187.277 36.7625C188.666 37.539 189.237 39.2393 188.554 40.4486Z" fill="#111111"/>
<path d="M187.75 44.8875C186.723 45.8603 186.763 46.7732 187.044 47.4333C187.072 47.5009 187.079 47.5754 187.065 47.6471C187.05 47.7189 187.014 47.7845 186.961 47.8354C186.909 47.8863 186.842 47.9201 186.771 47.9324C186.699 47.9447 186.625 47.9349 186.558 47.9043C184.838 47.0387 182.062 45.2002 183.262 42.7744C183.828 41.6287 185.273 41.1086 186.625 41.6742C187.978 42.2397 188.675 44.0073 187.75 44.8875Z" fill="#111111"/>
<path d="M189.193 24.879L185.521 24.7186" stroke="#5959FF" stroke-width="1.45843" stroke-linecap="round" stroke-linejoin="round"/>
<path d="M189.259 31.1242L186.168 30.7888" stroke="#5959FF" stroke-width="1.45843" stroke-linecap="round" stroke-linejoin="round"/>
<path d="M187.191 36.7903L186.253 36.5552" stroke="#5959FF" stroke-width="1.45843" stroke-linecap="round" stroke-linejoin="round"/>
<path d="M186.372 41.4965L185.422 41.3105" stroke="#5959FF" stroke-width="1.45843" stroke-linecap="round" stroke-linejoin="round"/>
<path d="M188.173 15.3153C187.035 14.6807 187.486 15.6554 186.362 15.8427C186.228 18.4613 184.064 18.5377 183.102 18.4377C182.378 20.438 183.401 22.8693 185.596 24.095C188.01 25.4406 190.317 24.5096 191.499 22.4092C192.682 20.3089 190.587 16.661 188.173 15.3153Z" fill="#111111"/>
<path d="M184.887 8.43958C183.344 6.72838 177.978 5.85551 175.396 7.62308C169.793 6.44106 162.538 6.36287 163.588 14.3042C163.613 14.5005 163.681 14.6889 163.787 14.8555C163.893 15.0221 164.035 15.1628 164.202 15.2674C164.37 15.3719 164.558 15.4377 164.754 15.4598C164.95 15.4819 165.148 15.4599 165.334 15.3953L179.795 10.9345C180.546 11.7193 181.164 12.623 181.622 13.6095C182.846 13.184 184.855 12.8821 185.512 15.1316C186.417 18.2376 183.239 18.7213 182.834 18.7686C182.853 19.8642 182.708 20.9565 182.404 22.0091C185.699 21.8273 188.924 20.918 189.105 18.0212C189.319 14.4788 187.042 10.8418 184.887 8.43958Z" fill="#111111"/>
<path d="M177.663 20.8411C179.222 20.1453 179.727 17.8655 178.79 15.7491C177.854 13.6327 175.83 12.4811 174.271 13.1769C172.712 13.8727 172.207 16.1524 173.144 18.2688C174.08 20.3852 176.104 21.5369 177.663 20.8411Z" stroke="#5959FF" stroke-width="0.82037" stroke-linecap="round" stroke-linejoin="round"/>
<path d="M170.14 24.0019C171.699 23.3061 172.204 21.0264 171.267 18.91C170.331 16.7936 168.307 15.6419 166.748 16.3377C165.189 17.0335 164.684 19.3133 165.621 21.4297C166.557 23.5461 168.581 24.6977 170.14 24.0019Z" stroke="#5959FF" stroke-width="0.82037" stroke-linecap="round" stroke-linejoin="round"/>
<path d="M170.843 17.9528L172.621 17.1974" stroke="#5959FF" stroke-width="0.82037" stroke-linecap="round" stroke-linejoin="round"/>
<path d="M178.093 14.466L182.47 13.2931" stroke="#5959FF" stroke-width="0.82037" stroke-linecap="round" stroke-linejoin="round"/>
<path d="M187.146 86.2817L186.119 84.9506C185.752 84.4711 185.291 84.0722 184.764 83.7785C184.237 83.4848 183.656 83.3026 183.057 83.243C181.702 83.1139 180.11 82.9575 180.11 82.9575C180.11 82.9575 176.851 83.2357 176.34 83.263C175.829 83.2903 173.223 84.2686 173.299 84.5596C173.48 85.267 175.599 85.0542 176.707 84.7305C177.816 84.4069 180.132 85.1179 180.132 85.1179C180.132 85.1179 180.579 87.1819 180.143 87.14C179.706 87.0982 177.336 86.6454 176.896 87.3492C176.456 88.0529 176.554 88.6366 177.488 88.6221C178.422 88.6076 179.661 89.3659 179.661 89.3659C179.661 89.3659 183.068 89.1513 183.935 88.8203C184.078 88.7658 184.247 88.7276 184.478 89.0985" stroke="#111111" stroke-width="1.09383" stroke-linecap="round" stroke-linejoin="round"/>
<path d="M217.018 95.0577C215.879 94.431 214.621 94.0531 213.326 93.9488C212.031 93.8444 210.729 94.0159 209.504 94.4521L200.207 97.7654L188.303 85.0615L180.203 93.5938L195.323 111.051C195.8 111.602 196.433 111.993 197.138 112.171C197.843 112.349 198.585 112.306 199.265 112.048L204.722 109.975L199.079 127.796" stroke="#111111" stroke-width="1.09383" stroke-linecap="round" stroke-linejoin="round"/>
<path d="M234.318 132.749C234.85 132.385 235.284 131.893 235.58 131.318C235.876 130.743 236.025 130.103 236.013 129.456L235.702 109.946C235.75 108.549 235.401 107.167 234.695 105.962C233.989 104.758 232.957 103.78 231.718 103.143L227.552 100.851" stroke="#111111" stroke-width="1.09383" stroke-linecap="round" stroke-linejoin="round"/>
<path d="M206.118 127.072C204.602 127.025 203.085 127.132 201.59 127.392C200.196 127.647 197.825 128.071 197.586 128.434C197.021 129.291 199.149 129.707 200.161 128.996" stroke="#111111" stroke-width="1.0282" stroke-linecap="round" stroke-linejoin="round"/>
<path d="M199.948 130.718C198.559 131.055 197.903 130.973 198.269 130.224C198.528 129.691 202.036 127.86 202.724 127.665C203.412 127.47 209.408 126.59 209.408 126.59L210.946 132.989H202.253C200.151 133.124 200.757 131.926 201.616 131.615C202.474 131.304 204.059 130.562 204.296 130.622C204.296 130.622 202.032 131.271 201.022 131.904C200.297 132.191 199.491 131.693 199.413 131.46C199.336 131.227 199.998 130.605 201.098 130.042C201.921 129.64 202.768 129.289 203.633 128.989" stroke="#111111" stroke-width="1.09383" stroke-linecap="round" stroke-linejoin="round"/>
<path d="M208.865 126.638L224.87 123.068L224.313 115.276" stroke="#111111" stroke-width="1.09383" stroke-linecap="round" stroke-linejoin="round"/>
<path d="M228.206 97.0707C228.232 97.483 228.2 97.8969 228.11 98.3L227.177 102.528C227.054 103.09 226.821 103.622 226.492 104.094C226.163 104.566 225.745 104.968 225.261 105.277C224.778 105.586 224.238 105.797 223.674 105.897C223.109 105.997 222.531 105.984 221.971 105.859C221.411 105.735 220.881 105.501 220.411 105.171C219.942 104.841 219.541 104.421 219.233 103.936C218.925 103.45 218.715 102.908 218.616 102.341C218.516 101.774 218.529 101.193 218.653 100.631L219.301 97.6908" stroke="#111111" stroke-width="1.09383" stroke-linecap="round" stroke-linejoin="round"/>
<path d="M231.589 90.7225C231.589 90.7225 235.079 83.8977 228.235 80.248C227.598 79.9079 223.194 77.673 221.078 81.2518C219.666 83.6413 218.639 86.4054 218 88.6003C218 88.613 216.718 92.7282 217.58 95.536C218.442 98.3437 222.078 99.3184 224.334 98.8238C226.591 98.3292 227.129 97.8618 228.094 96.7089C229.059 95.556 231.589 90.7352 231.589 90.7352V90.7225Z" stroke="#111111" stroke-width="1.09383" stroke-linecap="round" stroke-linejoin="round"/>
<path d="M217.992 88.6003C218.639 86.4053 219.666 83.6412 221.071 81.2518C221.136 81.1408 221.205 81.0372 221.274 80.9372C220.122 80.037 218.264 81.8955 216.98 85.7125C216.324 87.6874 214.513 88.6821 214.513 88.6821C215.902 89.9023 217.152 89.3713 217.978 88.6821L217.992 88.6003Z" fill="#111111"/>
<path d="M221.229 87.3346L219.754 91.0534L220.97 91.5007" stroke="#111111" stroke-width="1.09383" stroke-linecap="round" stroke-linejoin="round"/>
<path d="M220.237 87.0809C220.367 86.777 220.314 86.4625 220.119 86.3784C219.924 86.2944 219.66 86.4727 219.53 86.7766C219.4 87.0806 219.453 87.3951 219.648 87.4791C219.843 87.5632 220.107 87.3849 220.237 87.0809Z" fill="#111111"/>
<path d="M223.623 88.5434C223.694 88.2207 223.584 87.9219 223.377 87.876C223.169 87.83 222.944 88.0543 222.873 88.377C222.802 88.6997 222.912 88.9985 223.12 89.0444C223.327 89.0904 223.552 88.8661 223.623 88.5434Z" fill="#111111"/>
<path d="M226.19 87.3346C226.093 87.0333 225.917 86.7637 225.681 86.5539C225.444 86.3441 225.156 86.2017 224.847 86.1417" stroke="#111111" stroke-width="1.09383" stroke-linecap="round" stroke-linejoin="round"/>
<path d="M221.629 84.6047C221.629 84.6047 220.558 83.6184 219.754 84.1981" stroke="#111111" stroke-width="1.09383" stroke-linecap="round" stroke-linejoin="round"/>
<path d="M238.896 88.7039L235.202 86.8217C235.665 84.0576 235.383 79.7824 230.216 77.3656C222.146 73.6014 219.195 81.7173 219.195 81.7173L237.694 91.1061C238.008 91.2549 238.368 91.2746 238.697 91.1612C239.026 91.0478 239.298 90.8101 239.455 90.4987C239.612 90.1872 239.643 89.8265 239.539 89.493C239.436 89.1596 239.207 88.8798 238.902 88.713L238.896 88.7039Z" fill="#5959FF"/>
<path d="M220.359 94.2248C219.535 92.5409 223.382 93.6793 223.382 93.6793C223.382 93.6793 222.3 97.5635 220.359 94.2248Z" fill="#111111"/>
<path d="M234.765 89.6149L226.964 85.6616C226.058 88.4966 224.923 94.1903 229.754 95.6832C229.754 95.6832 233.532 96.9398 234.619 95.6941C234.619 95.6941 232.025 93.7829 232.614 92.2245C232.614 92.2245 235.269 96.167 238.38 94.0721C238.38 94.0721 234.696 92.8864 234.765 89.6149Z" fill="#111111"/>
<path d="M112.84 104.177C112.84 104.177 116.493 103.186 118.568 101.195C119.805 100.008 121.393 98.4037 121.366 97.8818C121.312 96.9035 119.267 98.4074 118.934 98.6092" stroke="#111111" stroke-width="1.09383" stroke-linecap="round" stroke-linejoin="round"/>
<path d="M111.572 105.451L111.904 104.638C113.872 103.818 115.207 102.943 116.069 102.172C117.175 101.174 120.281 97.0219 120.256 96.58C120.185 95.4035 118.264 95.8981 117.286 98.0348" stroke="#111111" stroke-width="1.09383" stroke-linecap="round" stroke-linejoin="round"/>
<path d="M114.823 100.935C114.823 100.935 116.554 99.4294 117.177 98.1783C117.8 96.9271 118.198 95.9652 117.988 95.796C117.778 95.6269 116.663 95.9288 116.21 96.6689C115.714 97.9273 113.685 99.6258 113.685 99.6258C113.93 99.5276 115.178 98.1401 115.746 97.2799C116.315 96.4198 116.342 95.0759 114.578 96.5762C114.578 96.5762 112.715 98.2437 111.996 98.7402C111.996 98.7402 108.736 99.9695 107.927 101.361C107.745 101.682 107.11 102.739 106.226 104.177" stroke="#111111" stroke-width="1.09383" stroke-linecap="round" stroke-linejoin="round"/>
<path d="M101.455 109.693L104.673 103.812L112.139 105.585L105.738 121.533" stroke="#111111" stroke-width="1.09383" stroke-linecap="round" stroke-linejoin="round"/>
<path d="M68.6161 102.892L62.7413 102.675V102.617H60.7022C58.4928 102.617 55.4847 104.981 55.1552 107.542C54.5503 112.244 51.5622 118.724 50.3108 124.132C49.3694 126.991 48.5835 129.9 47.9565 132.846" stroke="#111111" stroke-width="1.09383" stroke-linecap="round" stroke-linejoin="round"/>
<path d="M86.6718 109.473C86.4956 108.97 86.2519 108.493 85.9474 108.056C83.0752 104.159 78.4626 103.346 76.3691 103.183" stroke="#111111" stroke-width="1.09383" stroke-linecap="round" stroke-linejoin="round"/>
<path d="M68.2828 102.199C67.1636 102.337 66.0408 101.01 65.7637 99.2056C65.6088 98.3384 65.7147 97.4445 66.068 96.6379" stroke="#5959FF" stroke-width="1.09383" stroke-linecap="round" stroke-linejoin="round"/>
<path d="M83.7699 101.642C82.6507 101.781 81.5279 100.453 81.249 98.6492" stroke="#5959FF" stroke-width="1.09383" stroke-linecap="round" stroke-linejoin="round"/>
<path d="M67.0368 83.6013C69.4219 81.8338 71.001 72.5686 64.5341 66.353C57.9856 60.0628 52.5346 66.4912 51.323 68.1842C50.1115 69.8772 49.1988 74.5344 54.8617 78.9351C60.5246 83.3358 64.3113 85.6198 67.0368 83.6013Z" fill="#111111"/>
<path d="M70.4992 87.7038L70.3508 87.8001C69.9114 88.0747 69.3845 88.1711 68.877 88.0698C68.3695 87.9685 67.9193 87.677 67.618 87.2546L65.8758 84.8069C65.7272 84.6062 65.6211 84.377 65.5642 84.1334C65.5073 83.8899 65.5008 83.6372 65.5451 83.391C65.5894 83.1449 65.6836 82.9105 65.8218 82.7023C65.96 82.4942 66.1393 82.3168 66.3485 82.181L66.497 82.0846C66.9361 81.8102 67.4627 81.7138 67.9699 81.8152C68.4771 81.9165 68.9269 82.2079 69.228 82.6302L70.9701 85.0779C71.1202 85.278 71.2275 85.5071 71.2852 85.7508C71.343 85.9945 71.35 86.2475 71.3058 86.4941C71.2616 86.7406 71.1671 86.9753 71.0283 87.1835C70.8895 87.3917 70.7094 87.5688 70.4992 87.7038Z" fill="#5959FF"/>
<path d="M68.618 96.2671C68.2956 96.4779 67.9242 96.6012 67.5401 96.6248C67.156 96.6484 66.7724 96.5715 66.4268 96.4016C65.3275 95.8761 64.8422 94.5977 65.3402 93.5484C65.52 93.1832 65.8016 92.8784 66.1508 92.6708C66.4999 92.4632 66.9015 92.3619 67.3069 92.3791" stroke="#111111" stroke-width="1.09383" stroke-linecap="round" stroke-linejoin="round"/>
<path d="M81.7944 91.7427C82.3201 91.5997 82.8796 91.652 83.37 91.89C84.4692 92.4155 84.9564 93.6939 84.4566 94.7432C84.2415 95.1746 83.8871 95.5201 83.4513 95.7232C83.0155 95.9263 82.524 95.9751 82.057 95.8616" stroke="#111111" stroke-width="1.09383" stroke-linecap="round" stroke-linejoin="round"/>
<path d="M76.3613 102.83L76.403 103.903L79.0253 104.481C79.1031 104.71 79.1864 106.953 78.2049 108.846" stroke="#111111" stroke-width="1.09383" stroke-linecap="round" stroke-linejoin="round"/>
<path d="M76.1134 110.962C75.2242 111.406 74.0707 111.608 72.5839 111.404C68.156 110.799 66.0861 106.82 64.8999 103.179L68.6559 103.443L68.6703 95.9307" stroke="#111111" stroke-width="1.09383" stroke-linecap="round" stroke-linejoin="round"/>
<path d="M76.605 102.534C80.3874 101.836 82.7294 97.3124 81.8361 92.4297C80.9428 87.5471 77.1524 84.1546 73.37 84.8523C69.5877 85.5501 67.2457 90.0739 68.139 94.9565C69.0323 99.8392 72.8226 103.232 76.605 102.534Z" stroke="#111111" stroke-width="1.09383" stroke-linecap="round" stroke-linejoin="round"/>
<path d="M75.6113 95.8342L76.9388 95.7887C76.9708 95.7877 77.0022 95.7794 77.0305 95.7644C77.0589 95.7494 77.0835 95.7282 77.1025 95.7023C77.1215 95.6763 77.1344 95.6465 77.1402 95.6148C77.1461 95.5832 77.1447 95.5506 77.1362 95.5196L76.1818 91.8826" stroke="#111111" stroke-width="1.09383" stroke-linecap="round" stroke-linejoin="round"/>
<path d="M71.9375 90.1147C71.9375 90.1147 73.111 89.0555 74.0926 89.9324" stroke="#111111" stroke-width="1.09383" stroke-linecap="round" stroke-linejoin="round"/>
<path d="M77.2959 89.7806C77.2959 89.7806 78.799 89.2145 79.4039 90.3685" stroke="#111111" stroke-width="1.09383" stroke-linecap="round" stroke-linejoin="round"/>
<path d="M74.4521 93.0943C74.4664 92.6547 74.2404 92.2905 73.9475 92.281C73.6547 92.2714 73.4057 92.6201 73.3915 93.0598C73.3772 93.4994 73.6032 93.8636 73.8961 93.8731C74.189 93.8827 74.4379 93.534 74.4521 93.0943Z" fill="#111111"/>
<path d="M78.9303 94.0718C79.2216 94.0506 79.432 93.6769 79.4003 93.2372C79.3686 92.7975 79.1068 92.4581 78.8155 92.4793C78.5242 92.5005 78.3138 92.8741 78.3455 93.3139C78.3772 93.7536 78.639 94.0929 78.9303 94.0718Z" fill="#111111"/>
<path d="M82.9907 94.8541C84.1226 94.6722 85.0697 96.1888 85.345 98.0146C85.6203 99.8403 84.9357 101.47 83.8038 101.637H83.764" stroke="#5959FF" stroke-width="1.09383" stroke-linecap="round" stroke-linejoin="round"/>
<path d="M67.3062 95.5742C68.438 95.3923 69.5843 96.7362 69.865 98.5619C70.1457 100.388 69.454 102.017 68.3221 102.184H68.2823" stroke="#5959FF" stroke-width="1.09383" stroke-linecap="round" stroke-linejoin="round"/>
<path d="M75.8762 98.4546C75.8762 98.4546 72.8483 100.34 72.6943 96.2452L75.8762 98.4546Z" stroke="#111111" stroke-width="1.09383" stroke-linecap="round" stroke-linejoin="round"/>
<path d="M72.4732 82.7666L72.4569 82.7866C70.1914 83.1193 67.6614 84.1613 66.2525 85.6834C63.757 88.3766 64.9033 94.163 67.4459 94.5576C67.6566 94.5888 67.8688 94.6088 68.0816 94.6176C68.0599 94.4721 68.0399 94.3267 68.0236 94.1794C67.9641 93.6543 67.9412 93.1256 67.9548 92.5973C71.4192 91.2971 71.4138 86.0816 71.4065 85.6452C72.1418 86.2344 73.1052 87.2418 72.8553 88.3438L80.5212 88.8294C81.295 90.1731 81.7822 91.6636 81.9518 93.2065V93.2683C82.6762 92.2372 82.7016 90.6315 82.1003 88.9294L84.6918 89.0949C84.6918 89.0949 87.0678 80.3043 72.4732 82.7666Z" fill="#111111"/>
<path d="M73.9983 122.235L63.9927 122.199L64.9 115.132" stroke="#111111" stroke-width="1.09383" stroke-linecap="round" stroke-linejoin="round"/>
<path d="M51.3067 124.872C50.5824 127.736 52.9547 131.184 55.8976 131.246L60.865 131.235" stroke="#111111" stroke-width="1.09383" stroke-linecap="round" stroke-linejoin="round"/>
<path d="M64.1444 122.222C64.1444 122.222 61.6978 121.131 59.9321 123.768" stroke="#111111" stroke-width="1.09383" stroke-linecap="round" stroke-linejoin="round"/>
<path d="M64.0937 121.388C64.0937 121.388 61.8228 119.336 58.9741 121.691" stroke="#111111" stroke-width="1.09383" stroke-linecap="round" stroke-linejoin="round"/>
<path d="M60.6714 128.512L72.6383 128.638L76.5808 110.018C76.6128 109.826 76.7104 109.652 76.8568 109.524C77.0033 109.397 77.1894 109.325 77.3831 109.32L106.54 109.766C107.07 109.766 107.463 110.335 107.342 110.911L103.635 130.771C103.378 132 101.824 132.953 100.737 132.935C93.575 132.819 64.7298 132.406 63.8859 132.389C60.0086 132.333 60.6714 128.512 60.6714 128.512Z" stroke="#111111" stroke-width="1.09383" stroke-linecap="round" stroke-linejoin="round"/>
<path d="M120.415 75.4072C120.415 75.4072 122.654 74.6798 123.697 73.3086C125.52 70.8991 121.643 72.9759 119.443 73.2904" stroke="#111111" stroke-width="1.09383" stroke-linecap="round" stroke-linejoin="round"/>
<path d="M105.19 56.4767L102.003 64.2307C102.003 64.2307 109.196 69.9389 114.473 71.2173C119.021 72.5394 119.386 73.1722 119.386 73.1722C119.386 73.1722 121.223 76.931 121.422 78.3131C121.621 79.6951 122.347 84.1904 121.632 84.2904C121.123 84.3613 120.279 82.1464 119.886 80.9899" stroke="#111111" stroke-width="1.09383" stroke-linecap="round" stroke-linejoin="round"/>
<path d="M115.634 78.7404C114.935 77.6766 113.843 76.6619 113.863 75.8526C113.863 75.8526 106.67 76.4109 94.6254 69.2279C93.3849 68.4878 92.9321 66.8821 92.8488 65.4364C92.646 61.9085 93.2346 54.9055 96.0887 49.8792" stroke="#111111" stroke-width="1.09383" stroke-linecap="round" stroke-linejoin="round"/>
<path d="M120.343 78.3077C120.343 78.3077 120.204 81.6191 119.131 81.9556C118.059 82.292 117.92 81.3718 117.92 81.3718" stroke="#111111" stroke-width="1.09383" stroke-linecap="round" stroke-linejoin="round"/>
<path d="M119.019 78.2931C119.019 78.2931 118.644 81.2318 117.551 81.4882C116.457 81.7446 116.384 80.8153 116.384 80.8153" stroke="#111111" stroke-width="1.09383" stroke-linecap="round" stroke-linejoin="round"/>
<path d="M117.387 78.2367C117.387 78.2367 116.882 81.7627 115.553 80.5425C114.224 79.3223 114.305 78.6404 114.305 78.6404C114.305 78.6404 114.825 77.642 115.886 79.0932" stroke="#111111" stroke-width="1.09383" stroke-linecap="round" stroke-linejoin="round"/>
<path d="M135.39 34.564C137.284 37.7463 140.28 42.8217 141.774 45.4749" stroke="#111111" stroke-width="1.09383" stroke-linecap="round" stroke-linejoin="round"/>
<path d="M124.146 27.2482C132.455 26.3244 135.879 33.1637 135.879 33.1637C135.879 33.1637 133.427 38.9974 130.846 40.8413C130.846 40.8413 136.408 45.0766 133.896 50.2975L109.053 50.5175L105.6 56.9004L95.48 49.6901C95.48 49.6901 100.754 39.232 102.235 38.0518C103.021 37.4226 105.703 34.8985 109.841 32.4145" stroke="#111111" stroke-width="1.09383" stroke-linecap="round" stroke-linejoin="round"/>
<path d="M120.55 31.6416C121.2 33.2965 121.546 36.3097 116.989 38.5028C112.824 40.5031 107.183 38.0173 105.048 35.8733L110.236 32.069L111.051 28.5211" stroke="#111111" stroke-width="1.09383" stroke-linecap="round" stroke-linejoin="round"/>
<path d="M109.839 23.7985C109.839 23.7985 105.855 23.5166 106.761 19.9797C107.44 17.2919 110.077 17.963 111.31 18.4449" stroke="#111111" stroke-width="1.09383" stroke-linecap="round" stroke-linejoin="round"/>
<path d="M124.714 24.9132C124.282 26.5244 121.455 33.6911 116.243 32.6455C111.031 31.5998 109.06 25.9171 110.017 21.0181C110.973 16.1191 114.318 12.8349 117.623 13.4168C120.928 13.9987 127.847 13.2513 124.714 24.9132Z" stroke="#111111" stroke-width="1.09383" stroke-linecap="round" stroke-linejoin="round"/>
<path d="M111.771 9.48036L113.659 9.19739L113.163 5.86106L111.275 6.14404L111.771 9.48036Z" fill="#5959FF"/>
<path d="M111.627 6.75022C113.483 6.75022 114.988 5.23913 114.988 3.37511C114.988 1.51109 113.483 0 111.627 0C109.77 0 108.266 1.51109 108.266 3.37511C108.266 5.23913 109.77 6.75022 111.627 6.75022Z" fill="#111111"/>
<path d="M113.709 8.13772C116.819 7.7613 120.048 7.92678 122.618 9.55978C130.3 14.968 129.124 21.3327 125.046 23.5621C126.028 19.0832 125.343 16.6882 123.994 15.3662C121.801 17.7448 115.917 19.0468 110.922 18.1576C110.902 18.1994 110.884 18.243 110.866 18.2867C109.532 17.8557 107.357 17.572 106.75 19.9761C105.913 23.2948 109.349 23.7531 109.79 23.7949C109.79 24.0713 111.015 28.6866 111.015 28.6866L110.243 31.298L98.3741 28.0392C98.2194 28.0058 98.0746 27.9363 97.9515 27.8364C97.8284 27.7365 97.7304 27.609 97.6654 27.464C97.6003 27.3191 97.5701 27.1609 97.5772 27.0021C97.5842 26.8433 97.6283 26.6884 97.7059 26.5499C99.7867 22.8147 103.682 9.48886 113.709 8.13772Z" fill="#111111"/>
<path d="M118.085 28.6739C118.085 28.6739 116.752 28.894 116.551 27.2919" stroke="#111111" stroke-width="1.09383" stroke-linecap="round" stroke-linejoin="round"/>
<path d="M119.028 26.0698L120.542 26.5535L121.401 20.2216" stroke="#111111" stroke-width="1.09383" stroke-linecap="round" stroke-linejoin="round"/>
<path d="M117.16 18.4506C117.16 18.4506 118.654 17.8135 119.255 18.9748" stroke="#111111" stroke-width="1.09383" stroke-linecap="round" stroke-linejoin="round"/>
<path d="M123.431 20.7308C123.431 20.7308 124.72 20.4778 125.003 21.4989" stroke="#111111" stroke-width="1.09383" stroke-linecap="round" stroke-linejoin="round"/>
<path d="M117.633 22.2043C117.809 21.7882 117.734 21.3584 117.466 21.2443C117.198 21.1301 116.838 21.3749 116.663 21.7909C116.487 22.207 116.561 22.6368 116.829 22.7509C117.097 22.8651 117.457 22.6203 117.633 22.2043Z" fill="#111111"/>
<path d="M123.21 24.309C123.386 23.8929 123.311 23.4631 123.043 23.349C122.775 23.2348 122.415 23.4796 122.24 23.8956C122.064 24.3117 122.139 24.7415 122.407 24.8556C122.674 24.9698 123.034 24.725 123.21 24.309Z" fill="#111111"/>
<path d="M119.498 21.6198C120.304 19.3111 119.544 16.9417 117.799 16.3276C116.055 15.7136 113.988 17.0874 113.182 19.3962C112.376 21.7049 113.136 24.0743 114.88 24.6884C116.625 25.3024 118.692 23.9286 119.498 21.6198Z" stroke="#5959FF" stroke-width="1.09383" stroke-linecap="round" stroke-linejoin="round"/>
<path d="M128.401 24.9548C129.207 22.6461 128.446 20.2767 126.702 19.6626C124.958 19.0486 122.891 20.4224 122.085 22.7312C121.278 25.0399 122.039 27.4093 123.783 28.0234C125.527 28.6374 127.595 27.2636 128.401 24.9548Z" stroke="#5959FF" stroke-width="1.09383" stroke-linecap="round" stroke-linejoin="round"/>
<path d="M122.181 22.0791L119.676 21.189" stroke="#5959FF" stroke-width="1.09383" stroke-linecap="round" stroke-linejoin="round"/>
<path d="M113.363 18.5458L110.243 18.1575" stroke="#5959FF" stroke-width="1.09383" stroke-linecap="round" stroke-linejoin="round"/>
<path d="M145.399 50.7703C146.14 52.827 145.399 57.3877 147.044 54.6054C147.603 52.216 146.881 49.15 145.729 47.817C144.905 46.6932 144.309 45.3639 141.415 45.6967C138.521 46.0295 138.384 47.6716 138.384 47.6716C138.384 47.6716 136.783 50.0774 137.116 51.1267C137.449 52.1759 137.775 52.3178 137.478 52.9688C137.181 53.6198 138.514 55.0419 139.043 54.0253C139.572 53.0088 139.586 50.6593 139.439 50.2065C139.311 49.8046 140.133 49.4682 140.296 49.4046L140.323 49.3955H140.414C141.173 50.2956 141.113 56.3403 141.92 56.5094C142.728 56.6785 142.853 56.1457 142.853 56.1457" stroke="#111111" stroke-width="1.09383" stroke-linecap="round" stroke-linejoin="round"/>
<path d="M144.53 56.2822C144.324 56.4805 144.065 56.6133 143.784 56.6641C142.458 56.8987 142.938 51.8014 142.319 50.6794" stroke="#111111" stroke-width="1.09383" stroke-linecap="round" stroke-linejoin="round"/>
<path d="M146.201 55.2819C145.937 55.9257 145.591 56.4603 145.16 56.5094C144.026 56.6403 144.387 52.0359 143.959 50.6902" stroke="#111111" stroke-width="1.09383" stroke-linecap="round" stroke-linejoin="round"/>
<path d="M1 132.829H301" stroke="#111111" stroke-width="1.09383" stroke-linecap="round" stroke-linejoin="round"/>
</svg>
